<svg width="34" height="38" viewBox="0 0 34 38" fill="none" xmlns="http://www.w3.org/2000/svg">
<path d="M20.4 3.45455H7.14841C6.13547 3.45455 5.26334 4.18098 5.06469 5.1902L3.70634 12.0909H0V15.5455H3.58487L5.91779 36.0884C6.04151 37.1778 6.94941 38 8.02878 38H25.9712C27.0506 38 27.9585 37.1778 28.0821 36.0884L30.415 15.5455H34V12.0909H30.2937L28.9354 5.1902C28.7366 4.18098 27.8645 3.45455 26.8515 3.45455H23.8V0H20.4V3.45455ZM26.8263 12.0909H7.17366L8.19366 6.90909H25.8063L26.8263 12.0909ZM7.00743 15.5455H26.9926L24.835 34.5455H9.16513L7.00743 15.5455Z" fill="#F3B849"/>
</svg>
