<svg width="186" height="52" viewBox="0 0 186 52" fill="none" xmlns="http://www.w3.org/2000/svg">
<path d="M19.9648 32.7119C19.903 32.9469 19.835 33.2191 19.7607 33.5283C19.6989 33.8252 19.668 34.1097 19.668 34.3818C19.668 34.6292 19.7051 34.8395 19.7793 35.0127C19.8535 35.1859 20.0143 35.2725 20.2617 35.2725C20.5957 35.2725 20.9915 35.1549 21.4492 34.9199C21.9193 34.6725 22.4202 34.3509 22.9521 33.9551C23.484 33.5469 24.0345 33.083 24.6035 32.5635C25.1725 32.0316 25.7354 31.4873 26.292 30.9307C26.8486 30.3617 27.3805 29.7926 27.8877 29.2236C28.3949 28.6546 28.8464 28.1227 29.2422 27.6279L29.9287 30.0957C29.1123 31.1842 28.2712 32.2295 27.4053 33.2314C26.5394 34.2334 25.6549 35.1178 24.752 35.8848C23.8613 36.6517 22.9645 37.264 22.0615 37.7217C21.1585 38.1794 20.2617 38.4082 19.3711 38.4082C18.8516 38.4082 18.4062 38.3216 18.0352 38.1484C17.6764 37.9876 17.3857 37.765 17.1631 37.4805C16.9404 37.1836 16.7734 36.8496 16.6621 36.4785C16.5632 36.0951 16.5137 35.693 16.5137 35.2725C16.5137 35.1117 16.5199 34.8828 16.5322 34.5859C16.5446 34.2891 16.557 33.986 16.5693 33.6768C16.5941 33.3551 16.6126 33.0645 16.625 32.8047C16.6497 32.5449 16.6621 32.3779 16.6621 32.3037L10.0752 32.7119L7.01367 32.749C6.49414 33.8747 5.98079 34.8704 5.47363 35.7363C5.25098 36.1074 5.01595 36.4723 4.76855 36.8311C4.52116 37.1898 4.27376 37.5114 4.02637 37.7959C3.77897 38.068 3.53158 38.2845 3.28418 38.4453C3.03678 38.6185 2.79557 38.7051 2.56055 38.7051C2.18945 38.7051 1.88639 38.6494 1.65137 38.5381C1.41634 38.4268 1.23079 38.2845 1.09473 38.1113C0.958659 37.9505 0.859701 37.765 0.797852 37.5547C0.748372 37.3444 0.723633 37.1465 0.723633 36.9609C0.723633 36.6393 0.766927 36.3239 0.853516 36.0146C0.940104 35.693 1.0638 35.39 1.22461 35.1055L3.67383 30.9863C3.78516 30.8132 4.00781 30.3988 4.3418 29.7432C4.68815 29.0876 5.12728 28.2835 5.65918 27.3311C6.20345 26.3662 6.82812 25.3024 7.5332 24.1396C8.23828 22.9769 8.99902 21.8018 9.81543 20.6143C10.6442 19.4144 11.5163 18.2516 12.4316 17.126C13.3594 16.0003 14.3057 15.0046 15.2705 14.1387C16.2477 13.2604 17.2311 12.5615 18.2207 12.042C19.2103 11.5101 20.1937 11.2441 21.1709 11.2441C22.0863 11.2441 22.9831 11.5286 23.8613 12.0977C24.752 12.6667 25.5993 13.6006 26.4033 14.8994C26.4899 15.0726 26.5332 15.221 26.5332 15.3447C26.5332 15.5055 26.4899 15.6663 26.4033 15.8271C26.3167 15.988 26.1992 16.1302 26.0508 16.2539C25.9147 16.3776 25.7601 16.4766 25.5869 16.5508C25.4137 16.625 25.2344 16.6621 25.0488 16.6621C24.8262 16.6621 24.5664 16.6126 24.2695 16.5137C23.985 16.4147 23.7129 16.2044 23.4531 15.8828C23.0697 15.4375 22.6676 15.1159 22.2471 14.918C21.8389 14.7077 21.4307 14.6025 21.0225 14.6025C20.4411 14.6025 19.8473 14.7695 19.2412 15.1035C18.6351 15.4251 18.0228 15.8704 17.4043 16.4395C16.7982 16.9961 16.1921 17.6455 15.5859 18.3877C14.9798 19.1175 14.3923 19.8906 13.8232 20.707C13.2542 21.5234 12.7038 22.3584 12.1719 23.2119C11.64 24.0654 11.139 24.8818 10.6689 25.6611C10.1989 26.4404 9.76595 27.1579 9.37012 27.8135C8.98665 28.4691 8.64648 29.0195 8.34961 29.4648H11.7451L17.4785 29.0381C17.5898 28.7907 17.7383 28.4567 17.9238 28.0361C18.1094 27.6032 18.3135 27.1208 18.5361 26.5889C18.7712 26.057 19.0247 25.4818 19.2969 24.8633C19.569 24.2448 19.8411 23.6263 20.1133 23.0078C20.3978 22.377 20.6761 21.7585 20.9482 21.1523C21.2204 20.5339 21.474 19.9648 21.709 19.4453C21.8698 18.9753 22.1048 18.6413 22.4141 18.4434C22.7357 18.2454 23.0758 18.1465 23.4346 18.1465C23.6201 18.1465 23.8057 18.1774 23.9912 18.2393C24.1768 18.2887 24.3438 18.3753 24.4922 18.499C24.653 18.6104 24.7829 18.7588 24.8818 18.9443C24.9808 19.1175 25.0365 19.3278 25.0488 19.5752C25.0488 19.8102 24.9437 20.2122 24.7334 20.7812C24.5355 21.3503 24.2757 22.0182 23.9541 22.7852C23.6449 23.5521 23.2923 24.387 22.8965 25.29C22.513 26.1807 22.1296 27.0775 21.7461 27.9805C21.375 28.8711 21.0286 29.7308 20.707 30.5596C20.3854 31.376 20.138 32.0934 19.9648 32.7119Z" fill="#4E2922" fill-opacity="0.85"/>
<path d="M32.9902 27.1826C33.4727 26.8857 33.9674 26.6136 34.4746 26.3662C34.9941 26.1188 35.4951 25.9085 35.9775 25.7354C36.46 25.5498 36.9176 25.4076 37.3506 25.3086C37.7959 25.1973 38.1917 25.1416 38.5381 25.1416C39.0947 25.1416 39.5215 25.2777 39.8184 25.5498C40.1276 25.8096 40.2822 26.2549 40.2822 26.8857C40.2822 27.0218 40.276 27.1702 40.2637 27.3311C40.2513 27.4795 40.2266 27.6403 40.1895 27.8135C40.1276 28.1351 39.9421 28.5124 39.6328 28.9453C39.3236 29.3783 38.9587 29.8298 38.5381 30.2998C38.1299 30.7699 37.6846 31.2461 37.2021 31.7285C36.7321 32.1986 36.293 32.6377 35.8848 33.0459C35.4889 33.4417 35.1549 33.7881 34.8828 34.085C34.623 34.3818 34.4932 34.5859 34.4932 34.6973C34.4932 34.7962 34.4993 34.8643 34.5117 34.9014C34.5241 34.9385 34.5798 34.957 34.6787 34.957C35.3467 34.6725 36.0889 34.3324 36.9053 33.9365C37.734 33.5283 38.5566 33.1139 39.373 32.6934C40.1895 32.2728 40.9626 31.8646 41.6924 31.4688C42.4222 31.0605 43.0407 30.708 43.5479 30.4111C43.6592 30.3493 43.7705 30.2998 43.8818 30.2627C44.0055 30.2132 44.1169 30.1885 44.2158 30.1885C44.4385 30.1885 44.624 30.2627 44.7725 30.4111C44.9209 30.5596 44.9951 30.7575 44.9951 31.0049C44.9951 31.2894 44.8714 31.6172 44.624 31.9883C44.389 32.347 43.987 32.7243 43.418 33.1201C42.985 33.3923 42.4964 33.7015 41.9521 34.0479C41.4202 34.3818 40.8574 34.7344 40.2637 35.1055C39.6823 35.4642 39.0885 35.8167 38.4824 36.1631C37.8887 36.5094 37.3135 36.8187 36.7568 37.0908C36.2002 37.363 35.6745 37.5856 35.1797 37.7588C34.6973 37.9196 34.2767 38 33.918 38C33.0645 38 32.4212 37.7959 31.9883 37.3877C31.5677 36.9795 31.3574 36.4538 31.3574 35.8105C31.3574 35.7116 31.3636 35.6374 31.376 35.5879C31.4626 35.0436 31.6234 34.5179 31.8584 34.0107C32.0934 33.5036 32.3594 33.0212 32.6562 32.5635C32.9531 32.1058 33.2624 31.6729 33.584 31.2646C33.9056 30.8441 34.1963 30.4544 34.4561 30.0957C34.7282 29.7246 34.9508 29.3844 35.124 29.0752C35.2972 28.766 35.3838 28.4814 35.3838 28.2217C35.3838 28.1598 35.3714 28.098 35.3467 28.0361C35.3219 27.9743 35.2663 27.9434 35.1797 27.9434C35.0312 27.9434 34.7839 27.999 34.4375 28.1104C34.1035 28.2217 33.7448 28.3701 33.3613 28.5557C32.9779 28.7412 32.613 28.9577 32.2666 29.2051C31.9202 29.4401 31.6729 29.6937 31.5244 29.9658C31.3265 30.3122 31.0977 30.7513 30.8379 31.2832C30.5781 31.8151 30.306 32.3717 30.0215 32.9531C29.7493 33.5345 29.4834 34.1097 29.2236 34.6787C28.9639 35.2477 28.7412 35.7363 28.5557 36.1445C28.4072 36.5033 28.2093 36.8249 27.9619 37.1094C27.7269 37.3939 27.4671 37.6351 27.1826 37.833C26.8981 38.0309 26.6074 38.1855 26.3105 38.2969C26.0137 38.4082 25.7415 38.4639 25.4941 38.4639C25.2096 38.4639 24.9808 38.3896 24.8076 38.2412C24.6468 38.0928 24.5664 37.8516 24.5664 37.5176C24.5664 37.3815 24.585 37.2145 24.6221 37.0166C24.6715 36.8063 24.7643 36.5775 24.9004 36.3301C25.123 35.9095 25.3457 35.4518 25.5684 34.957C25.8034 34.4622 26.0693 33.8994 26.3662 33.2686C26.6631 32.6253 27.0033 31.8955 27.3867 31.0791C27.7826 30.2503 28.2464 29.2979 28.7783 28.2217C28.6051 28.0732 28.4567 27.8939 28.333 27.6836C28.2217 27.4609 28.166 27.1888 28.166 26.8672C28.166 26.5703 28.2279 26.3167 28.3516 26.1064C28.4753 25.8838 28.6423 25.7044 28.8525 25.5684C29.0628 25.4323 29.304 25.3333 29.5762 25.2715C29.8607 25.1973 30.1576 25.1602 30.4668 25.1602C30.7884 25.1602 31.11 25.1911 31.4316 25.2529C31.7533 25.3024 32.0378 25.3828 32.2852 25.4941C32.5449 25.6055 32.7552 25.7415 32.916 25.9023C33.0768 26.0632 33.1572 26.2487 33.1572 26.459C33.1572 26.4961 33.1449 26.5456 33.1201 26.6074C33.0954 26.6693 33.0645 26.7373 33.0273 26.8115C33.0026 26.8857 32.9779 26.9538 32.9531 27.0156C32.9284 27.0775 32.916 27.127 32.916 27.1641C32.916 27.1888 32.9222 27.2012 32.9346 27.2012H32.9531L32.9902 27.1826ZM49.2812 27.7764C48.6999 27.7764 48.137 27.9248 47.5928 28.2217C47.0609 28.5062 46.5846 28.8896 46.1641 29.3721C45.7559 29.8421 45.4281 30.3802 45.1807 30.9863C44.9333 31.5801 44.8096 32.1924 44.8096 32.8232C44.8096 33.0583 44.8281 33.318 44.8652 33.6025C44.9023 33.8747 44.9766 34.1344 45.0879 34.3818C45.2116 34.6169 45.3848 34.8148 45.6074 34.9756C45.8301 35.1364 46.127 35.2168 46.498 35.2168C47.0671 35.2168 47.6175 35.0684 48.1494 34.7715C48.6937 34.4622 49.1761 34.0664 49.5967 33.584C50.0173 33.0892 50.3512 32.5326 50.5986 31.9141C50.846 31.2956 50.9697 30.6709 50.9697 30.04C50.9697 29.7926 50.9512 29.5391 50.9141 29.2793C50.8893 29.0072 50.8151 28.7598 50.6914 28.5371C50.5801 28.3145 50.4131 28.1351 50.1904 27.999C49.9678 27.8506 49.6647 27.7764 49.2812 27.7764ZM50.2461 24.5107C50.7161 24.5107 51.2171 24.5726 51.749 24.6963C52.2933 24.82 52.7943 25.0303 53.252 25.3271C53.7096 25.624 54.0869 26.0199 54.3838 26.5146C54.693 26.9971 54.8477 27.597 54.8477 28.3145C54.8477 28.6855 54.7982 29.1123 54.6992 29.5947C54.6003 30.0648 54.4518 30.5596 54.2539 31.0791C54.3776 31.2275 54.5199 31.3327 54.6807 31.3945C54.8415 31.4564 55.0146 31.4873 55.2002 31.4873C55.46 31.4873 55.7445 31.4131 56.0537 31.2646C56.3753 31.1162 56.7031 30.9245 57.0371 30.6895C57.3711 30.4544 57.7051 30.1885 58.0391 29.8916C58.373 29.5947 58.6885 29.2979 58.9854 29.001C59.2822 28.7041 59.5482 28.4258 59.7832 28.166C60.0306 27.8939 60.2347 27.665 60.3955 27.4795C60.4821 27.3929 60.5872 27.3496 60.7109 27.3496C60.8841 27.3496 61.0387 27.4424 61.1748 27.6279C61.3109 27.8011 61.3789 28.0485 61.3789 28.3701C61.3789 28.6917 61.2799 29.0628 61.082 29.4834C60.8965 29.904 60.5439 30.3431 60.0244 30.8008C59.7275 31.1224 59.3874 31.4935 59.0039 31.9141C58.6204 32.3346 58.2122 32.7305 57.7793 33.1016C57.3464 33.4727 56.8949 33.7881 56.4248 34.0479C55.9548 34.3076 55.4847 34.4375 55.0146 34.4375C54.693 34.4375 54.3776 34.388 54.0684 34.2891C53.7715 34.1901 53.4684 34.0293 53.1592 33.8066C52.7139 34.4993 52.2067 35.1302 51.6377 35.6992C51.0687 36.2682 50.4316 36.7568 49.7266 37.165C49.0339 37.5732 48.2793 37.8887 47.4629 38.1113C46.6589 38.3464 45.7992 38.4639 44.8838 38.4639C44.5374 38.4639 44.1354 38.3958 43.6777 38.2598C43.2201 38.1237 42.7809 37.901 42.3604 37.5918C41.9521 37.2702 41.6058 36.8558 41.3213 36.3486C41.0368 35.8415 40.8945 35.223 40.8945 34.4932C40.8945 33.9984 40.9749 33.4046 41.1357 32.7119C41.2965 32.0192 41.5378 31.3079 41.8594 30.5781C42.1934 29.8359 42.6077 29.1061 43.1025 28.3887C43.6097 27.6589 44.2096 27.0094 44.9023 26.4404C45.5951 25.859 46.3867 25.3952 47.2773 25.0488C48.168 24.6901 49.1576 24.5107 50.2461 24.5107ZM63.791 37.3691C63.791 36.7754 63.9209 36.1693 64.1807 35.5508C64.4528 34.9323 64.793 34.2952 65.2012 33.6396C65.6094 32.984 66.0547 32.3223 66.5371 31.6543C67.0195 30.974 67.4772 30.2812 67.9102 29.5762C68.0339 29.3783 68.1328 29.1927 68.207 29.0195C68.2812 28.834 68.3184 28.6484 68.3184 28.4629C68.3184 28.265 68.2627 28.1042 68.1514 27.9805C68.04 27.8444 67.8792 27.7764 67.6689 27.7764C67.1618 27.7764 66.6732 27.8877 66.2031 28.1104C65.7331 28.3206 65.2816 28.6051 64.8486 28.9639C64.4157 29.3102 64.0013 29.7122 63.6055 30.1699C63.222 30.6276 62.8571 31.1038 62.5107 31.5986C62.1768 32.0811 61.8613 32.5635 61.5645 33.0459C61.2676 33.5283 60.9954 33.9674 60.748 34.3633C60.5254 34.7715 60.3213 35.2168 60.1357 35.6992C59.9502 36.1816 59.7461 36.627 59.5234 37.0352C59.3132 37.4434 59.0719 37.7835 58.7998 38.0557C58.5277 38.3402 58.1875 38.4824 57.7793 38.4824C57.334 38.4824 56.9814 38.3402 56.7217 38.0557C56.4619 37.7712 56.332 37.431 56.332 37.0352C56.332 36.8125 56.4124 36.4661 56.5732 35.9961C56.734 35.526 56.9382 34.9818 57.1855 34.3633C57.4453 33.7324 57.736 33.0645 58.0576 32.3594C58.3792 31.6543 58.6947 30.9554 59.0039 30.2627C59.3255 29.57 59.6224 28.9206 59.8945 28.3145C60.179 27.696 60.4141 27.1702 60.5996 26.7373C60.8223 26.2054 61.113 25.8096 61.4717 25.5498C61.8428 25.29 62.2077 25.1602 62.5664 25.1602C62.8757 25.1602 63.1478 25.2777 63.3828 25.5127C63.6302 25.7354 63.7539 26.0632 63.7539 26.4961C63.7539 26.8177 63.6797 27.1702 63.5312 27.5537C63.8652 27.2445 64.224 26.9105 64.6074 26.5518C64.9909 26.193 65.4053 25.8652 65.8506 25.5684C66.3083 25.2591 66.8154 25.0055 67.3721 24.8076C67.9287 24.6097 68.5534 24.5107 69.2461 24.5107C69.5924 24.5107 69.9202 24.554 70.2295 24.6406C70.5387 24.7272 70.8109 24.8633 71.0459 25.0488C71.2933 25.2344 71.4912 25.4756 71.6396 25.7725C71.8005 26.0693 71.8932 26.4281 71.918 26.8486C72.2025 26.5641 72.5117 26.2858 72.8457 26.0137C73.1797 25.7292 73.5384 25.4756 73.9219 25.2529C74.3177 25.0303 74.7445 24.8509 75.2021 24.7148C75.6598 24.5788 76.167 24.5107 76.7236 24.5107C77.1318 24.5107 77.5215 24.554 77.8926 24.6406C78.2637 24.7272 78.5915 24.8757 78.876 25.0859C79.1729 25.2839 79.4017 25.5436 79.5625 25.8652C79.7357 26.1868 79.8223 26.5827 79.8223 27.0527C79.8223 27.7949 79.6491 28.5 79.3027 29.168C78.9688 29.8359 78.5729 30.4482 78.1152 31.0049C77.9668 31.1904 77.7689 31.4255 77.5215 31.71C77.2741 31.9945 77.0329 32.2975 76.7979 32.6191C76.5628 32.9408 76.3587 33.2747 76.1855 33.6211C76.0124 33.9551 75.9258 34.2705 75.9258 34.5674C75.9258 34.8395 76.0062 35.0127 76.167 35.0869C76.3402 35.1611 76.5628 35.1982 76.835 35.1982C77.3545 35.1982 77.9173 35.0436 78.5234 34.7344C79.1296 34.4251 79.7171 34.054 80.2861 33.6211C80.8675 33.1758 81.4056 32.7181 81.9004 32.248C82.4076 31.7656 82.8096 31.3636 83.1064 31.042C83.1807 30.9554 83.2673 30.8936 83.3662 30.8564C83.4652 30.8193 83.5641 30.8008 83.6631 30.8008C83.8857 30.8008 84.0837 30.8997 84.2568 31.0977C84.4424 31.2956 84.5352 31.5553 84.5352 31.877C84.5352 32.1243 84.4609 32.3965 84.3125 32.6934C84.1641 32.9902 83.9105 33.2809 83.5518 33.5654C82.8838 34.2087 82.1973 34.8271 81.4922 35.4209C80.7995 36.0023 80.0944 36.5218 79.377 36.9795C78.6719 37.4248 77.9606 37.7835 77.2432 38.0557C76.5381 38.3278 75.833 38.4639 75.1279 38.4639C74.2126 38.4639 73.4704 38.2474 72.9014 37.8145C72.3447 37.3815 72.0664 36.695 72.0664 35.7549C72.0664 35.1364 72.1839 34.555 72.4189 34.0107C72.654 33.4665 72.9447 32.9469 73.291 32.4521C73.6374 31.945 74.0023 31.4564 74.3857 30.9863C74.7692 30.5163 75.1032 30.0462 75.3877 29.5762C75.5114 29.3783 75.6104 29.1927 75.6846 29.0195C75.7588 28.834 75.7959 28.6484 75.7959 28.4629C75.7959 28.265 75.7402 28.1042 75.6289 27.9805C75.5176 27.8444 75.3568 27.7764 75.1465 27.7764C74.6393 27.7764 74.1507 27.8877 73.6807 28.1104C73.2106 28.3206 72.7591 28.6051 72.3262 28.9639C71.8932 29.3102 71.4788 29.7122 71.083 30.1699C70.6995 30.6276 70.3346 31.1038 69.9883 31.5986C69.6543 32.0811 69.3389 32.5635 69.042 33.0459C68.7451 33.5283 68.473 33.9674 68.2256 34.3633C68.0029 34.7715 67.7988 35.2168 67.6133 35.6992C67.4277 36.1816 67.2236 36.627 67.001 37.0352C66.7907 37.4434 66.5495 37.7835 66.2773 38.0557C66.0052 38.3402 65.665 38.4824 65.2568 38.4824C65.1084 38.4824 64.9476 38.4515 64.7744 38.3896C64.6012 38.3402 64.4404 38.266 64.292 38.167C64.1559 38.068 64.0384 37.9505 63.9395 37.8145C63.8529 37.6784 63.8034 37.5299 63.791 37.3691ZM89.582 27.8691C89.0007 27.8691 88.4378 28.0176 87.8936 28.3145C87.3493 28.6113 86.8669 29.001 86.4463 29.4834C86.0257 29.9658 85.6917 30.5101 85.4443 31.1162C85.1969 31.71 85.0732 32.3099 85.0732 32.916C85.0732 33.1634 85.0856 33.4232 85.1104 33.6953C85.1475 33.9551 85.2217 34.1963 85.333 34.4189C85.4443 34.6416 85.599 34.8271 85.7969 34.9756C86.0072 35.124 86.2855 35.1982 86.6318 35.1982C86.904 35.1982 87.2194 35.0807 87.5781 34.8457C87.9492 34.5983 88.3265 34.2891 88.71 33.918C89.1058 33.5345 89.4893 33.1201 89.8604 32.6748C90.2314 32.2171 90.5654 31.7718 90.8623 31.3389C91.1592 30.9059 91.4004 30.5163 91.5859 30.1699C91.7715 29.8236 91.8643 29.57 91.8643 29.4092C91.8643 29.1742 91.7839 28.9639 91.623 28.7783C91.4622 28.5804 91.2643 28.4134 91.0293 28.2773C90.7943 28.1413 90.5407 28.0423 90.2686 27.9805C90.0088 27.9062 89.7799 27.8691 89.582 27.8691ZM102.44 32.6562C102.218 32.8665 101.921 33.1572 101.55 33.5283C101.179 33.8994 100.752 34.3014 100.27 34.7344C99.7995 35.1673 99.2923 35.6064 98.748 36.0518C98.2161 36.4847 97.6657 36.8805 97.0967 37.2393C96.54 37.598 95.9896 37.8887 95.4453 38.1113C94.901 38.3464 94.3877 38.4639 93.9053 38.4639C93.4723 38.4639 93.1012 38.3711 92.792 38.1855C92.4827 38 92.223 37.7588 92.0127 37.4619C91.8148 37.165 91.6663 36.8311 91.5674 36.46C91.4684 36.0765 91.4189 35.6868 91.4189 35.291C91.4189 35.0312 91.4375 34.7777 91.4746 34.5303C91.5117 34.2705 91.5736 34.0293 91.6602 33.8066C91.2767 34.3262 90.8376 34.8643 90.3428 35.4209C89.8604 35.9652 89.3346 36.4661 88.7656 36.9238C88.209 37.3691 87.6214 37.734 87.0029 38.0186C86.3968 38.3154 85.7783 38.4639 85.1475 38.4639C84.8258 38.4639 84.4486 38.3958 84.0156 38.2598C83.5951 38.1361 83.193 37.9258 82.8096 37.6289C82.4261 37.332 82.1045 36.9486 81.8447 36.4785C81.585 36.0085 81.4551 35.4333 81.4551 34.7529C81.4551 34.2458 81.5293 33.6396 81.6777 32.9346C81.8385 32.2295 82.0736 31.4997 82.3828 30.7451C82.7044 29.9782 83.1064 29.2236 83.5889 28.4814C84.0837 27.7393 84.665 27.0775 85.333 26.4961C86.001 25.9023 86.7617 25.4261 87.6152 25.0674C88.4688 24.6963 89.4212 24.5107 90.4727 24.5107C91.0169 24.5107 91.4932 24.5788 91.9014 24.7148C92.3096 24.8509 92.6559 24.9993 92.9404 25.1602C93.262 25.3581 93.5465 25.5745 93.7939 25.8096C94.0042 25.6982 94.2207 25.5931 94.4434 25.4941C94.6289 25.4076 94.8206 25.3333 95.0186 25.2715C95.2288 25.1973 95.4082 25.1602 95.5566 25.1602C96.0267 25.1602 96.4102 25.29 96.707 25.5498C97.0039 25.8096 97.1523 26.0941 97.1523 26.4033C97.1523 26.4899 97.1462 26.5579 97.1338 26.6074C97.0719 26.8424 96.973 27.1393 96.8369 27.498C96.7132 27.8568 96.571 28.2588 96.4102 28.7041C96.2493 29.137 96.0824 29.5947 95.9092 30.0771C95.7484 30.5472 95.5999 31.0111 95.4639 31.4688C95.3278 31.9264 95.2165 32.3594 95.1299 32.7676C95.0433 33.1634 95 33.5036 95 33.7881C95 34.1592 95.0618 34.4684 95.1855 34.7158C95.3092 34.9508 95.5195 35.0684 95.8164 35.0684C96.002 35.0684 96.2184 35.0127 96.4658 34.9014C96.7256 34.7777 97.0039 34.6169 97.3008 34.4189C97.5977 34.221 97.9007 33.9984 98.21 33.751C98.5316 33.4912 98.8408 33.2314 99.1377 32.9717C99.8304 32.3532 100.566 31.6481 101.346 30.8564C101.544 30.6956 101.735 30.6152 101.921 30.6152C102.168 30.6152 102.372 30.7389 102.533 30.9863C102.706 31.2214 102.793 31.4873 102.793 31.7842C102.793 32.1305 102.675 32.4212 102.44 32.6562Z" fill="#4A2721" fill-opacity="0.86"/>
<path d="M132.777 14.5654C132.777 14.8994 132.722 15.3014 132.61 15.7715C132.511 16.2415 132.363 16.7301 132.165 17.2373C131.967 17.7445 131.726 18.2516 131.441 18.7588C131.169 19.2536 130.854 19.7051 130.495 20.1133C130.136 20.5091 129.747 20.8307 129.326 21.0781C128.906 21.3255 128.454 21.4492 127.972 21.4492C127.86 21.4492 127.712 21.443 127.526 21.4307C127.353 21.4059 127.174 21.3626 126.988 21.3008C126.815 21.2266 126.66 21.1214 126.524 20.9854C126.401 20.8493 126.339 20.6699 126.339 20.4473C126.339 20.2988 126.376 20.1257 126.45 19.9277C126.537 19.7298 126.685 19.501 126.896 19.2412C127.118 18.9938 127.359 18.7031 127.619 18.3691C127.879 18.0228 128.114 17.6641 128.324 17.293C128.535 16.9219 128.708 16.557 128.844 16.1982C128.992 15.8395 129.066 15.5179 129.066 15.2334C129.066 14.8747 128.98 14.5902 128.807 14.3799C128.646 14.1572 128.361 14.0459 127.953 14.0459C127.421 14.0459 126.821 14.2191 126.153 14.5654C125.485 14.9118 124.786 15.388 124.057 15.9941C123.327 16.6003 122.585 17.3115 121.83 18.1279C121.076 18.932 120.346 19.7979 119.641 20.7256C118.936 21.641 118.268 22.5996 117.637 23.6016C117.018 24.5911 116.474 25.5745 116.004 26.5518C115.546 27.5166 115.181 28.4505 114.909 29.3535C114.649 30.2441 114.52 31.0544 114.52 31.7842C114.52 32.6872 114.761 33.4108 115.243 33.9551C115.726 34.4993 116.523 34.7715 117.637 34.7715C118.156 34.7715 118.929 34.5736 119.956 34.1777C120.983 33.7695 121.836 33.3675 122.517 32.9717C123.209 32.5635 123.902 32.1182 124.595 31.6357C125.3 31.141 125.968 30.6709 126.599 30.2256C127.229 29.7679 127.805 29.3597 128.324 29.001C128.844 28.6299 129.271 28.3701 129.604 28.2217C129.666 28.1722 129.741 28.1475 129.827 28.1475C130.013 28.1475 130.136 28.3021 130.198 28.6113C130.272 28.9082 130.31 29.2484 130.31 29.6318C130.31 29.8421 130.279 30.1019 130.217 30.4111C130.167 30.708 129.994 31.0544 129.697 31.4502C129.561 31.611 129.308 31.8831 128.937 32.2666C128.565 32.6501 128.102 33.083 127.545 33.5654C126.988 34.0479 126.351 34.5488 125.634 35.0684C124.916 35.5879 124.137 36.0641 123.296 36.4971C122.467 36.93 121.391 37.3568 120.067 37.7773C118.756 38.1979 117.612 38.4082 116.635 38.4082C115.484 38.4082 114.501 38.2721 113.685 38C112.868 37.7155 112.2 37.3258 111.681 36.8311C111.161 36.3363 110.778 35.7487 110.53 35.0684C110.295 34.3757 110.178 33.6211 110.178 32.8047C110.178 31.7904 110.332 30.7018 110.642 29.5391C110.951 28.3763 111.378 27.195 111.922 25.9951C112.479 24.7952 113.134 23.5954 113.889 22.3955C114.656 21.1956 115.491 20.0514 116.394 18.9629C117.309 17.862 118.28 16.8415 119.307 15.9014C120.333 14.9613 121.385 14.1449 122.461 13.4521C123.537 12.7594 124.619 12.2152 125.708 11.8193C126.797 11.4235 127.867 11.2256 128.918 11.2256C129.438 11.2256 129.932 11.2874 130.402 11.4111C130.872 11.5225 131.281 11.708 131.627 11.9678C131.986 12.2275 132.264 12.5739 132.462 13.0068C132.672 13.4274 132.777 13.9469 132.777 14.5654ZM136.043 27.8691C135.462 27.8691 134.899 28.0176 134.354 28.3145C133.81 28.6113 133.328 29.001 132.907 29.4834C132.487 29.9658 132.153 30.5101 131.905 31.1162C131.658 31.71 131.534 32.3099 131.534 32.916C131.534 33.1634 131.547 33.4232 131.571 33.6953C131.608 33.9551 131.683 34.1963 131.794 34.4189C131.905 34.6416 132.06 34.8271 132.258 34.9756C132.468 35.124 132.746 35.1982 133.093 35.1982C133.365 35.1982 133.68 35.0807 134.039 34.8457C134.41 34.5983 134.787 34.2891 135.171 33.918C135.567 33.5345 135.95 33.1201 136.321 32.6748C136.692 32.2171 137.026 31.7718 137.323 31.3389C137.62 30.9059 137.861 30.5163 138.047 30.1699C138.232 29.8236 138.325 29.57 138.325 29.4092C138.325 29.1742 138.245 28.9639 138.084 28.7783C137.923 28.5804 137.725 28.4134 137.49 28.2773C137.255 28.1413 137.002 28.0423 136.729 27.9805C136.47 27.9062 136.241 27.8691 136.043 27.8691ZM148.901 32.6562C148.679 32.8665 148.382 33.1572 148.011 33.5283C147.64 33.8994 147.213 34.3014 146.73 34.7344C146.26 35.1673 145.753 35.6064 145.209 36.0518C144.677 36.4847 144.127 36.8805 143.558 37.2393C143.001 37.598 142.451 37.8887 141.906 38.1113C141.362 38.3464 140.849 38.4639 140.366 38.4639C139.933 38.4639 139.562 38.3711 139.253 38.1855C138.944 38 138.684 37.7588 138.474 37.4619C138.276 37.165 138.127 36.8311 138.028 36.46C137.929 36.0765 137.88 35.6868 137.88 35.291C137.88 35.0312 137.898 34.7777 137.936 34.5303C137.973 34.2705 138.035 34.0293 138.121 33.8066C137.738 34.3262 137.299 34.8643 136.804 35.4209C136.321 35.9652 135.796 36.4661 135.227 36.9238C134.67 37.3691 134.082 37.734 133.464 38.0186C132.858 38.3154 132.239 38.4639 131.608 38.4639C131.287 38.4639 130.91 38.3958 130.477 38.2598C130.056 38.1361 129.654 37.9258 129.271 37.6289C128.887 37.332 128.565 36.9486 128.306 36.4785C128.046 36.0085 127.916 35.4333 127.916 34.7529C127.916 34.2458 127.99 33.6396 128.139 32.9346C128.299 32.2295 128.535 31.4997 128.844 30.7451C129.165 29.9782 129.567 29.2236 130.05 28.4814C130.545 27.7393 131.126 27.0775 131.794 26.4961C132.462 25.9023 133.223 25.4261 134.076 25.0674C134.93 24.6963 135.882 24.5107 136.934 24.5107C137.478 24.5107 137.954 24.5788 138.362 24.7148C138.771 24.8509 139.117 24.9993 139.401 25.1602C139.723 25.3581 140.007 25.5745 140.255 25.8096C140.465 25.6982 140.682 25.5931 140.904 25.4941C141.09 25.4076 141.282 25.3333 141.479 25.2715C141.69 25.1973 141.869 25.1602 142.018 25.1602C142.488 25.1602 142.871 25.29 143.168 25.5498C143.465 25.8096 143.613 26.0941 143.613 26.4033C143.613 26.4899 143.607 26.5579 143.595 26.6074C143.533 26.8424 143.434 27.1393 143.298 27.498C143.174 27.8568 143.032 28.2588 142.871 28.7041C142.71 29.137 142.543 29.5947 142.37 30.0771C142.209 30.5472 142.061 31.0111 141.925 31.4688C141.789 31.9264 141.677 32.3594 141.591 32.7676C141.504 33.1634 141.461 33.5036 141.461 33.7881C141.461 34.1592 141.523 34.4684 141.646 34.7158C141.77 34.9508 141.98 35.0684 142.277 35.0684C142.463 35.0684 142.679 35.0127 142.927 34.9014C143.187 34.7777 143.465 34.6169 143.762 34.4189C144.059 34.221 144.362 33.9984 144.671 33.751C144.993 33.4912 145.302 33.2314 145.599 32.9717C146.291 32.3532 147.027 31.6481 147.807 30.8564C148.005 30.6956 148.196 30.6152 148.382 30.6152C148.629 30.6152 148.833 30.7389 148.994 30.9863C149.167 31.2214 149.254 31.4873 149.254 31.7842C149.254 32.1305 149.136 32.4212 148.901 32.6562ZM159.774 27.4609C159.131 27.4857 158.519 27.5042 157.938 27.5166C157.368 27.529 156.812 27.5413 156.268 27.5537C155.723 27.5537 155.185 27.5537 154.653 27.5537C154.121 27.5537 153.583 27.5537 153.039 27.5537C152.717 28.1846 152.353 28.9206 151.944 29.7617C151.549 30.5905 151.128 31.4626 150.683 32.3779C150.25 33.2933 149.811 34.221 149.365 35.1611C148.932 36.0889 148.518 36.9733 148.122 37.8145C147.726 38.6432 147.368 39.3916 147.046 40.0596C146.724 40.7399 146.465 41.278 146.267 41.6738C146.131 41.9583 145.964 42.2181 145.766 42.4531C145.568 42.7005 145.351 42.9108 145.116 43.084C144.881 43.2572 144.64 43.387 144.393 43.4736C144.145 43.5726 143.916 43.6221 143.706 43.6221C143.409 43.6221 143.143 43.5479 142.908 43.3994C142.673 43.251 142.556 43.016 142.556 42.6943C142.556 42.5335 142.593 42.3418 142.667 42.1191C142.741 41.9089 142.846 41.6615 142.982 41.377L149.532 27.498H148.549C147.868 27.498 147.405 27.3929 147.157 27.1826C146.91 26.9723 146.786 26.7249 146.786 26.4404C146.786 26.1436 146.941 25.859 147.25 25.5869C147.559 25.3024 148.011 25.1602 148.604 25.1602H150.794C151.672 23.3913 152.55 21.9316 153.429 20.7812C154.319 19.6309 155.191 18.7217 156.045 18.0537C156.898 17.3857 157.727 16.9219 158.531 16.6621C159.348 16.4023 160.127 16.2725 160.869 16.2725C161.215 16.2725 161.543 16.3405 161.853 16.4766C162.174 16.6126 162.452 16.8167 162.688 17.0889C162.935 17.361 163.133 17.7074 163.281 18.1279C163.43 18.5361 163.504 19.0186 163.504 19.5752C163.504 20.1071 163.43 20.6947 163.281 21.3379C163.244 21.5111 163.17 21.6595 163.059 21.7832C162.947 21.8945 162.824 21.9873 162.688 22.0615C162.551 22.1357 162.415 22.1914 162.279 22.2285C162.143 22.2533 162.026 22.2656 161.927 22.2656C161.679 22.2656 161.451 22.21 161.24 22.0986C161.03 21.9749 160.925 21.7894 160.925 21.542C160.925 21.3812 160.931 21.2327 160.943 21.0967C160.968 20.9606 160.98 20.8245 160.98 20.6885C160.98 20.1689 160.882 19.7979 160.684 19.5752C160.498 19.3525 160.244 19.2412 159.923 19.2412C159.539 19.2412 159.088 19.4082 158.568 19.7422C158.061 20.0762 157.542 20.5215 157.01 21.0781C156.49 21.6348 155.989 22.2718 155.507 22.9893C155.024 23.6943 154.629 24.418 154.319 25.1602H158.643C159.026 25.1602 159.385 25.1663 159.719 25.1787C160.053 25.1911 160.343 25.2282 160.591 25.29C160.851 25.3519 161.049 25.457 161.185 25.6055C161.333 25.7415 161.407 25.9456 161.407 26.2178C161.407 26.3538 161.382 26.4899 161.333 26.626C161.284 26.762 161.197 26.8919 161.073 27.0156C160.962 27.127 160.801 27.2259 160.591 27.3125C160.381 27.3867 160.108 27.4362 159.774 27.4609ZM164.023 27.0527C163.962 27.0404 163.906 27.0342 163.856 27.0342C163.807 27.0342 163.751 27.0342 163.689 27.0342C163.219 27.0342 162.78 27.127 162.372 27.3125C161.964 27.498 161.587 27.7454 161.24 28.0547C160.906 28.3516 160.603 28.6917 160.331 29.0752C160.071 29.4587 159.836 29.8421 159.626 30.2256C159.416 30.5967 159.236 30.9554 159.088 31.3018C158.952 31.6481 158.847 31.9388 158.772 32.1738C159.205 31.9512 159.651 31.6976 160.108 31.4131C160.578 31.1286 161.018 30.8564 161.426 30.5967C161.834 30.3369 162.187 30.1019 162.483 29.8916C162.793 29.6813 163.009 29.5391 163.133 29.4648C163.689 29.1185 164.073 28.7969 164.283 28.5C164.493 28.1908 164.599 27.9248 164.599 27.7021C164.599 27.5166 164.537 27.3682 164.413 27.2568C164.302 27.1455 164.172 27.0775 164.023 27.0527ZM164.691 24.4922C165.718 24.4922 166.485 24.7396 166.992 25.2344C167.499 25.7292 167.753 26.4157 167.753 27.2939C167.753 27.8135 167.617 28.3577 167.345 28.9268C167.073 29.4958 166.603 30.0771 165.935 30.6709C165.267 31.2523 164.37 31.8522 163.244 32.4707C162.131 33.0768 160.733 33.6891 159.051 34.3076C159.113 34.6663 159.304 34.9508 159.626 35.1611C159.948 35.359 160.374 35.458 160.906 35.458C161.475 35.458 162.081 35.3776 162.725 35.2168C163.38 35.0436 164.023 34.8271 164.654 34.5674C165.298 34.3076 165.922 34.0293 166.528 33.7324C167.134 33.4232 167.679 33.1325 168.161 32.8604C168.656 32.5882 169.064 32.3532 169.386 32.1553C169.72 31.9574 169.942 31.8337 170.054 31.7842C170.165 31.71 170.264 31.6667 170.351 31.6543C170.45 31.6419 170.536 31.6357 170.61 31.6357C170.759 31.6357 170.882 31.6729 170.981 31.7471C171.08 31.8089 171.161 31.8893 171.223 31.9883C171.297 32.0749 171.346 32.1738 171.371 32.2852C171.396 32.3841 171.408 32.4707 171.408 32.5449C171.408 32.6562 171.396 32.7923 171.371 32.9531C171.346 33.1016 171.254 33.2747 171.093 33.4727C171.031 33.5345 170.821 33.7015 170.462 33.9736C170.116 34.2458 169.664 34.5674 169.107 34.9385C168.551 35.3096 167.901 35.7054 167.159 36.126C166.429 36.5342 165.65 36.9115 164.821 37.2578C164.005 37.6042 163.151 37.8887 162.261 38.1113C161.37 38.3464 160.492 38.4639 159.626 38.4639C158.884 38.4639 158.222 38.3216 157.641 38.0371C157.072 37.7526 156.583 37.3691 156.175 36.8867C155.779 36.4043 155.476 35.8477 155.266 35.2168C155.055 34.5859 154.95 33.9242 154.95 33.2314C154.95 32.6995 155.055 32.1182 155.266 31.4873C155.476 30.8441 155.779 30.2008 156.175 29.5576C156.571 28.9144 157.053 28.2897 157.622 27.6836C158.203 27.0651 158.853 26.5208 159.57 26.0508C160.288 25.5807 161.073 25.2035 161.927 24.9189C162.793 24.6344 163.714 24.4922 164.691 24.4922Z" fill="#010101" fill-opacity="0.74"/>
</svg>
