<svg width="60" height="36" viewBox="0 0 60 36" fill="none" xmlns="http://www.w3.org/2000/svg">
<path d="M58.3744 1.24267C58.0207 0.85352 57.59 0.542106 57.1097 0.328186C56.6293 0.114265 56.1098 0.00250762 55.5839 0H11.8372C11.3114 0.00250762 10.7918 0.114265 10.3115 0.328186C9.8311 0.542106 9.40042 0.85352 9.04677 1.24267C8.23507 2.12572 7.79531 3.28784 7.819 4.48703C5.69833 4.86157 3.76878 5.94806 2.34889 7.56714C0.929003 9.18622 0.103646 11.2411 0.00912616 13.3925C-0.0853938 15.5439 0.556572 17.6632 1.829 19.4006C3.10143 21.138 4.92824 22.3895 7.00789 22.9486C7.99145 23.238 9.01121 23.3858 10.0365 23.3876C11.3168 23.38 12.5868 23.1587 13.7942 22.7328C14.4367 23.6883 15.1349 24.6052 15.8852 25.4786C18.3683 28.4196 21.4812 30.7643 24.9932 32.3393H18.6459C18.1742 32.3393 17.7219 32.5267 17.3883 32.8602C17.0548 33.1938 16.8675 33.6461 16.8675 34.1178C16.8675 34.5895 17.0548 35.0418 17.3883 35.3753C17.7219 35.7089 18.1742 35.8962 18.6459 35.8962H48.939C49.4106 35.8962 49.8629 35.7089 50.1965 35.3753C50.53 35.0418 50.7174 34.5895 50.7174 34.1178C50.7174 33.6461 50.53 33.1938 50.1965 32.8602C49.8629 32.5267 49.4106 32.3393 48.939 32.3393H42.4577C45.9697 30.7643 49.0825 28.4196 51.5657 25.4786C56.2536 20.0316 59.1185 12.6798 59.6245 4.77723C59.6705 4.13377 59.5832 3.48774 59.3681 2.87955C59.153 2.27136 58.8147 1.71411 58.3744 1.24267ZM7.93804 19.5182C6.6606 19.1768 5.53461 18.4167 4.74025 17.3597C3.94589 16.3026 3.5291 15.0096 3.55654 13.6877C3.58397 12.3657 4.05405 11.0911 4.89158 10.0679C5.72911 9.0447 6.88566 8.33202 8.17616 8.04391C8.75919 12.0727 10.017 15.9744 11.8968 19.5852C10.5953 19.9208 9.22735 19.8976 7.93804 19.5182ZM33.7068 29.7275C22.5897 29.7275 13.1692 18.6401 12.2614 4.49447H55.1598C54.6314 18.1639 44.8314 29.7275 33.7068 29.7275Z" fill="#4E3D33"/>
<path d="M18.0137 17.9482C18.6299 18.948 19.3162 19.9029 20.0674 20.8057C23.788 25.2704 28.6322 27.7185 33.7071 27.7185C38.782 27.7185 43.6336 25.2629 47.3542 20.8057C48.1054 19.9029 48.7917 18.948 49.408 17.9482H18.0137Z" fill="#4E3D33"/>
</svg>
