<svg width="108" height="107" viewBox="0 0 108 107" fill="none" xmlns="http://www.w3.org/2000/svg">
<path d="M91.0292 28.1291V15.2553C91.0312 11.7397 90.3359 8.25866 88.9834 5.01364C88.472 3.81278 87.6159 2.79056 86.5235 2.0762C85.4311 1.36185 84.1514 0.987442 82.8462 1.00034H25.6829C24.3785 0.987009 23.0995 1.36132 22.008 2.07581C20.9166 2.79029 20.0619 3.81278 19.5523 5.01364C18.1947 8.25734 17.4971 11.739 17.5 15.2553V28.1291C17.5 28.6475 17.7059 29.1446 18.0725 29.5112C18.439 29.8777 18.9362 30.0837 19.4545 30.0837H20.7119C20.1907 51.9418 23.3766 77.7089 23.748 80.6276L18.9008 86.3218C18.0151 87.3643 17.528 88.6871 17.5261 90.055V95.9902C17.5226 96.9748 17.7716 97.9438 18.2492 98.8047L19.6304 101.28C20.0199 101.976 20.5869 102.556 21.2736 102.961C21.9603 103.367 22.7422 103.582 23.5395 103.587H27.4029V104.499C27.4029 104.931 27.5745 105.345 27.88 105.651C28.1854 105.956 28.5997 106.128 29.0317 106.128H35.1884C35.6204 106.128 36.0347 105.956 36.3402 105.651C36.6456 105.345 36.8172 104.931 36.8172 104.499V103.619H71.7315V104.551C71.7332 104.977 71.9033 105.386 72.2047 105.687C72.5062 105.988 72.9145 106.159 73.3407 106.16H79.5236C79.9498 106.159 80.3581 105.988 80.6596 105.687C80.961 105.386 81.1311 104.977 81.1328 104.551V103.619H84.9897C85.787 103.615 86.5689 103.399 87.2556 102.994C87.9423 102.589 88.5093 102.009 88.8988 101.313L90.2799 98.8373C90.7572 97.9759 91.0082 97.0075 91.0096 96.0228V90.0875C91.0072 88.7209 90.5228 87.3989 89.6415 86.3544L84.7877 80.6342C85.1591 77.7154 88.345 51.9678 87.8238 30.0902H89.0812C89.3378 30.0893 89.5918 30.0379 89.8286 29.9389C90.0655 29.8399 90.2804 29.6952 90.4613 29.5131C90.6422 29.331 90.7855 29.1151 90.8829 28.8776C90.9803 28.6401 91.03 28.3858 91.0292 28.1291ZM21.9694 30.0837H29.1359C30.0899 30.1267 30.9936 30.524 31.6703 31.1977L35.3774 34.9048C35.8538 35.3836 36.4203 35.7631 37.0444 36.0214C37.6684 36.2797 38.3374 36.4117 39.0128 36.4098H69.5034C70.1777 36.4112 70.8456 36.279 71.4685 36.0207C72.0914 35.7623 72.6569 35.3831 73.1323 34.9048L76.8459 31.1977C77.5202 30.5244 78.4217 30.1271 79.3737 30.0837H86.5403C80.6116 60.5091 62.7081 76.7512 33.9571 80.152H24.9793C24.4711 76.0932 21.5068 51.2251 21.9889 30.0706L21.9694 30.0837Z" fill="#F8E4BE"/>
<path d="M73.627 58.3594C79.6274 50.4566 83.0282 41.1596 85.0479 31.5303C83.7388 36.4972 82.0396 41.353 79.9661 46.0524C75.6466 55.6035 68.8905 63.9493 60.0235 69.6174C51.7493 74.9142 42.2894 77.5267 32.6602 79.1034C37.8047 78.6421 42.8876 77.6487 47.8273 76.139C58.0559 72.888 67.1119 66.9462 73.627 58.3594Z" fill="#F8E4BE"/>
<path d="M21.4863 31.1777L29.2067 31.5035L21.4863 31.8292V31.1777Z" fill="#F8E4BE"/>
<path d="M21.6055 33.6729L29.3324 33.9986L21.6055 34.3244V33.6729Z" fill="#F8E4BE"/>
<path d="M21.7285 36.1689L29.4489 36.4947L21.7285 36.8205V36.1689Z" fill="#F8E4BE"/>
<path d="M21.8516 38.6641L29.5719 38.9898L21.8516 39.3156V38.6641Z" fill="#F8E4BE"/>
<path d="M21.9688 41.1592L29.6891 41.4849L21.9688 41.8107V41.1592Z" fill="#F8E4BE"/>
<path d="M22.0938 43.6543L29.8141 43.9801L22.0938 44.3058V43.6543Z" fill="#F8E4BE"/>
<path d="M22.2109 46.1494L29.9378 46.4752L22.2109 46.8009V46.1494Z" fill="#F8E4BE"/>
<path d="M22.334 48.6445L30.0544 48.9703L22.334 49.296V48.6445Z" fill="#F8E4BE"/>
<path d="M22.4512 51.1406L30.1781 51.4664L22.4512 51.7921V51.1406Z" fill="#F8E4BE"/>
<path d="M22.5762 53.6357L30.2965 53.9615L22.5762 54.2872V53.6357Z" fill="#F8E4BE"/>
<path d="M22.6934 56.1309L30.4202 56.4566L22.6934 56.7824V56.1309Z" fill="#F8E4BE"/>
<path d="M22.8164 58.626L30.5368 58.9517L22.8164 59.2775V58.626Z" fill="#F8E4BE"/>
<path d="M22.9395 61.1211L30.6598 61.4468L22.9395 61.7726V61.1211Z" fill="#F8E4BE"/>
<path d="M23.0586 63.6172L30.7855 63.9429L23.0586 64.2687V63.6172Z" fill="#F8E4BE"/>
<path d="M23.1816 66.1123L30.902 66.4381L23.1816 66.7638V66.1123Z" fill="#F8E4BE"/>
<path d="M23.2988 68.6074L31.0257 68.9332L23.2988 69.2589V68.6074Z" fill="#F8E4BE"/>
<path d="M23.4219 71.1025L31.1422 71.4283L23.4219 71.754V71.1025Z" fill="#F8E4BE"/>
<path d="M23.5391 73.5977L31.2659 73.9234L23.5391 74.2492V73.5977Z" fill="#F8E4BE"/>
<path d="M23.6641 76.0928L31.3844 76.4185L23.6641 76.7443V76.0928Z" fill="#F8E4BE"/>
<path d="M23.7812 78.5879L31.5081 78.9136L23.7812 79.2394V78.5879Z" fill="#F8E4BE"/>
<path d="M42.4398 36.3972V38.8729C42.4415 39.3026 42.613 39.7142 42.9168 40.0181C43.2207 40.322 43.6323 40.4934 44.062 40.4951H44.1141L21.2397 41.9871C19.5718 42.2216 18.4252 44.7821 18.8356 47.6813C19.2461 50.5805 20.9205 52.75 22.5883 52.5089L48.7333 47.4728C49.5301 47.817 50.3815 48.0177 51.2482 48.0657V49.4469C51.2482 49.706 51.3511 49.9546 51.5344 50.1379C51.7177 50.3212 51.9662 50.4241 52.2254 50.4241H52.5381V51.2124C52.5381 51.247 52.5519 51.2801 52.5763 51.3046C52.6007 51.329 52.6339 51.3428 52.6684 51.3428H55.8608C55.8954 51.3428 55.9285 51.329 55.953 51.3046C55.9774 51.2801 55.9911 51.247 55.9911 51.2124V50.4241H56.3104C56.5696 50.4241 56.8181 50.3212 57.0014 50.1379C57.1847 49.9546 57.2876 49.706 57.2876 49.4469V48.0657C59.2253 47.9511 61.0461 47.101 62.378 45.6892C63.71 44.2773 64.4526 42.4101 64.4542 40.4691H64.4998C64.9301 40.4691 65.3427 40.2982 65.6469 39.9939C65.9512 39.6897 66.1221 39.2771 66.1221 38.8468V36.3711L42.4398 36.3972Z" fill="#F8E4BE"/>
<path d="M88.6121 87.8196L83.4 81.5391H25.1031L19.8911 87.8196C19.8593 87.8568 19.8365 87.9007 19.8244 87.9481C19.8123 87.9955 19.8112 88.045 19.8213 88.0928C19.8314 88.1407 19.8523 88.1856 19.8825 88.2241C19.9126 88.2625 19.9512 88.2936 19.9953 88.3148C21.4156 89.0249 28.1001 91.3834 54.2451 91.3834C80.3901 91.3834 87.0811 89.0249 88.5013 88.3148C88.5459 88.2942 88.5851 88.2636 88.616 88.2254C88.6468 88.1873 88.6684 88.1425 88.6791 88.0946C88.6899 88.0467 88.6894 87.9969 88.6778 87.9492C88.6661 87.9016 88.6437 87.8572 88.6121 87.8196Z" fill="#54372B"/>
<path d="M81.7461 82.1191C81.7461 82.1191 82.1109 82.4384 82.6061 82.9726C83.1012 83.5069 83.7332 84.2756 84.3261 85.0249C84.9189 85.7741 85.4792 86.6145 85.8701 87.2465C86.261 87.8785 86.5216 88.341 86.5216 88.341C86.5216 88.341 86.1503 88.0218 85.6486 87.4941C85.039 86.8418 84.4627 86.159 83.9221 85.4483C83.3293 84.6665 82.7755 83.8521 82.3846 83.2137C81.9937 82.5752 81.7461 82.1191 81.7461 82.1191Z" fill="#F8E4BE"/>
<path d="M26.784 82.1191C26.784 82.1191 26.4191 82.4384 25.924 82.9726C25.4289 83.5069 24.8034 84.2756 24.204 85.0249C23.6046 85.7741 23.0509 86.6145 22.6599 87.2465C22.4349 87.6004 22.2283 87.9657 22.041 88.341C22.041 88.341 22.4124 88.0218 22.9075 87.4941C23.5195 86.842 24.0979 86.1592 24.6405 85.4483C25.1882 84.7297 25.6992 83.9839 26.1716 83.2137C26.5625 82.5947 26.784 82.1191 26.784 82.1191Z" fill="#F8E4BE"/>
<path d="M83.0408 88.0934C82.6499 87.3767 82.0961 86.4581 81.4967 85.572C80.8973 84.686 80.2523 83.8455 79.7441 83.2396C79.236 82.6337 78.8516 82.2559 78.8516 82.2559C78.8516 82.2559 79.0666 82.7771 79.451 83.4937C79.8353 84.2104 80.3891 85.1355 80.982 86.0216C81.531 86.8282 82.1203 87.6066 82.7476 88.354C83.0292 88.6938 83.3294 89.0179 83.6467 89.3247C83.6467 89.3247 83.4317 88.81 83.0408 88.0934Z" fill="#F8E4BE"/>
<path d="M78.3383 85.7224C77.8041 84.8364 77.2307 83.9829 76.7747 83.364C76.3186 82.7451 75.9668 82.3672 75.9668 82.3672C76.1124 82.7861 76.2798 83.1971 76.4685 83.5985C76.8585 84.4654 77.2934 85.3113 77.7715 86.1329C78.2499 86.9481 78.7741 87.7355 79.3416 88.4914C79.5963 88.8367 79.8703 89.1674 80.1625 89.4816C80.0124 89.0647 79.8406 88.6558 79.6478 88.2568C79.3481 87.5336 78.84 86.615 78.3383 85.7224Z" fill="#F8E4BE"/>
<path d="M75.1721 85.9244C74.7561 85.0701 74.2972 84.2373 73.7974 83.4291C73.5754 83.0625 73.334 82.708 73.0742 82.3672C73.1867 82.8081 73.3215 83.243 73.4782 83.6702C73.7518 84.4194 74.1297 85.3902 74.6183 86.3283C75.0323 87.1849 75.4934 88.018 75.9995 88.8236C76.2262 89.1881 76.4719 89.5404 76.7357 89.8791C76.7357 89.8791 76.5989 89.3448 76.3187 88.5761C75.9832 87.6727 75.6005 86.7876 75.1721 85.9244Z" fill="#F8E4BE"/>
<path d="M72.0111 86.0289C71.6202 85.0842 71.1837 84.1721 70.8253 83.5076C70.627 83.1382 70.4095 82.7794 70.1738 82.4326C70.255 82.8722 70.3594 83.3071 70.4866 83.7356C70.7532 84.6373 71.0664 85.5245 71.4247 86.3938C71.7768 87.2528 72.1748 88.0923 72.617 88.9086C72.8141 89.2808 73.0316 89.6418 73.2685 89.9901C73.1819 89.5613 73.0732 89.1372 72.9427 88.7197C72.6789 87.8072 72.368 86.9091 72.0111 86.0289Z" fill="#F8E4BE"/>
<path d="M68.8462 86.1647C68.5581 85.3032 68.2254 84.4573 67.8494 83.6303C67.682 83.2538 67.4949 82.8863 67.2891 82.5293C67.3395 82.9522 67.4134 83.372 67.5106 83.7867C67.9097 85.5792 68.4926 87.3258 69.2501 88.9988C69.4213 89.3758 69.6127 89.7434 69.8234 90.0998C69.7688 89.6749 69.6927 89.2531 69.5954 88.8359C69.3925 87.933 69.1424 87.0414 68.8462 86.1647Z" fill="#F8E4BE"/>
<path d="M65.6865 86.2624C65.4589 85.3956 65.1871 84.541 64.8721 83.702C64.7338 83.3223 64.575 82.9504 64.3965 82.5879C64.4191 83.0046 64.4626 83.4199 64.5268 83.8323C64.6614 84.727 64.8419 85.6142 65.0675 86.4904C65.291 87.3563 65.5629 88.2089 65.8819 89.0443C66.0214 89.4276 66.1846 89.8019 66.3706 90.1649C66.3706 90.1649 66.3706 89.6567 66.2337 88.914C66.096 88.0215 65.9133 87.1365 65.6865 86.2624Z" fill="#F8E4BE"/>
<path d="M62.5515 86.3477C62.3691 85.3965 62.1411 84.4584 61.9 83.7417C61.7856 83.3548 61.6507 82.9742 61.4961 82.6016C61.4961 82.6016 61.4961 83.1032 61.5352 83.8394C61.6058 84.7267 61.7233 85.6097 61.887 86.4846C62.0546 87.3649 62.2722 88.235 62.5385 89.0906C62.653 89.4775 62.7878 89.8581 62.9424 90.2307C62.9515 89.8177 62.9385 89.4045 62.9034 88.9929C62.8187 88.2566 62.6884 87.3315 62.5515 86.3477Z" fill="#F8E4BE"/>
<path d="M58.9227 83.8198C58.8381 83.4276 58.7315 83.0404 58.6035 82.6602C58.5672 83.0652 58.552 83.4719 58.5579 83.8785C58.5651 85.6315 58.7595 87.3788 59.1377 89.0906C59.2186 89.483 59.323 89.8703 59.4505 90.2502C59.4911 89.8455 59.5085 89.4387 59.5026 89.0319C59.4961 88.1503 59.4439 87.2695 59.3462 86.3933C59.2355 85.4616 59.0791 84.517 58.9227 83.8198Z" fill="#F8E4BE"/>
<path d="M55.9384 83.8521C55.8824 83.4554 55.8063 83.0618 55.7104 82.6729C55.7104 82.6729 55.6257 83.155 55.5735 83.8716C55.5112 84.7388 55.496 85.6088 55.5279 86.4777C55.567 87.4289 55.6582 88.3801 55.7625 89.0837C55.8184 89.4809 55.8967 89.8746 55.997 90.2629C56.0649 89.8662 56.1106 89.466 56.1338 89.0641C56.1937 88.1968 56.2068 87.3269 56.1729 86.4581C56.1411 85.5859 56.0628 84.716 55.9384 83.8521Z" fill="#F8E4BE"/>
<path d="M52.8185 82.6729C52.7226 83.0618 52.6465 83.4554 52.5905 83.8521C52.4862 84.5622 52.395 85.5134 52.3559 86.4581C52.3253 87.3269 52.3384 88.1967 52.395 89.0641C52.4221 89.4659 52.47 89.8661 52.5384 90.2629C52.6343 89.8739 52.7104 89.4804 52.7664 89.0837C52.8908 88.2198 52.9691 87.3499 53.0009 86.4777C53.0315 85.6089 53.0185 84.7391 52.9618 83.8716C52.9347 83.4698 52.8869 83.0697 52.8185 82.6729Z" fill="#F8E4BE"/>
<path d="M49.6137 83.8205C49.4573 84.5176 49.2945 85.4623 49.1837 86.4265C49.086 87.3027 49.0338 88.1835 49.0273 89.0651C49.0273 89.7883 49.0795 90.2834 49.0795 90.2834C49.2075 89.9031 49.3141 89.516 49.3987 89.1237C49.5877 88.2632 49.7312 87.3933 49.8287 86.5177C49.9264 85.5665 49.9785 84.6088 49.9785 83.9117C49.9785 83.2146 49.9264 82.6934 49.9264 82.6934C49.8038 83.0637 49.6994 83.4399 49.6137 83.8205Z" fill="#F8E4BE"/>
<path d="M46.6357 83.7671C46.1339 85.4665 45.8086 87.2131 45.6649 88.9792C45.6298 89.3908 45.6168 89.804 45.6258 90.217C45.7805 89.8444 45.9153 89.4638 46.0298 89.0769C46.2383 88.3863 46.4663 87.4481 46.6813 86.4709C46.8963 85.4936 46.9745 84.5554 47.0266 83.8258C47.0617 83.4141 47.0747 83.0009 47.0657 82.5879C47.0657 82.5879 46.8442 83.0765 46.6357 83.7671Z" fill="#F8E4BE"/>
<path d="M42.8501 86.2624C42.6214 87.1365 42.4366 88.0215 42.2963 88.914C42.1856 89.6567 42.166 90.1649 42.166 90.1649C42.3486 89.8003 42.5117 89.4262 42.6546 89.0443C42.9712 88.2087 43.241 87.3561 43.4625 86.4904C43.6932 85.615 43.8759 84.7276 44.0098 83.8323C44.074 83.4199 44.1175 83.0046 44.1401 82.5879C43.9607 82.9509 43.7998 83.3227 43.658 83.702C43.3453 84.5412 43.0757 85.3957 42.8501 86.2624Z" fill="#F8E4BE"/>
<path d="M39.6843 86.1647C39.3716 87.1094 39.0979 88.0801 38.9351 88.8229C38.8377 89.24 38.7616 89.6619 38.707 90.0868C38.9178 89.7303 39.1092 89.3628 39.2804 88.9857C39.6605 88.1598 39.9954 87.3137 40.2837 86.4514C40.5964 85.5002 40.8635 84.5359 41.0264 83.7867C41.1893 83.0375 41.2479 82.5293 41.2479 82.5293C41.2479 82.5293 40.9938 82.9528 40.6811 83.6303C40.305 84.4573 39.9723 85.3032 39.6843 86.1647Z" fill="#F8E4BE"/>
<path d="M36.4905 86.0283C36.1061 86.9665 35.7673 87.9372 35.5458 88.6865C35.3243 89.4357 35.2266 89.9569 35.2266 89.9569C35.4647 89.6095 35.6822 89.2483 35.8781 88.8754C36.3256 88.0618 36.7237 87.222 37.0703 86.3606C37.4316 85.4924 37.7448 84.605 38.0085 83.7024C38.23 82.9532 38.3277 82.3994 38.3277 82.3994C38.3277 82.3994 38.0411 82.8164 37.6762 83.4809C37.2368 84.3088 36.841 85.1591 36.4905 86.0283Z" fill="#F8E4BE"/>
<path d="M34.7332 83.4226C34.3228 84.0741 33.8211 84.9797 33.3585 85.9179C32.896 86.8561 32.4855 87.8203 32.2119 88.5761C31.9383 89.3318 31.7949 89.8791 31.7949 89.8791C31.7949 89.8791 32.1207 89.4751 32.5376 88.8236C32.9546 88.1721 33.4563 87.2665 33.9188 86.3283C34.3425 85.4625 34.7209 84.5753 35.0525 83.6702C35.3261 82.921 35.4629 82.3672 35.4629 82.3672C35.2022 82.7066 34.9587 83.0589 34.7332 83.4226Z" fill="#F8E4BE"/>
<path d="M32.5818 82.3672C32.2955 82.6853 32.0258 83.018 31.7739 83.364C31.3114 83.9829 30.738 84.8364 30.2103 85.7224C29.6826 86.6085 29.194 87.5402 28.8617 88.2568C28.5294 88.9735 28.3535 89.4816 28.3535 89.4816C28.6457 89.1674 28.9198 88.8367 29.1744 88.4914C29.7397 87.7339 30.2638 86.9466 30.7445 86.1329C31.2324 85.3113 31.6782 84.4654 32.0801 83.5985C32.2688 83.1971 32.4362 82.7861 32.5818 82.3672Z" fill="#F8E4BE"/>
<path d="M29.676 82.2559C29.676 82.2559 29.2981 82.6272 28.7899 83.2396C28.2817 83.8521 27.6367 84.6925 27.0373 85.572C26.438 86.4516 25.8777 87.3767 25.4933 88.0934C25.1089 88.81 24.8809 89.3247 24.8809 89.3247C25.1994 89.0171 25.5017 88.6931 25.7865 88.354C26.4114 87.6064 26.9985 86.8279 27.5455 86.0216C28.0992 85.206 28.6103 84.3622 29.0766 83.4937C29.2984 83.0921 29.4985 82.6789 29.676 82.2559Z" fill="#F8E4BE"/>
<path d="M73.3398 105.613L80.6172 104.102V104.519C80.6172 104.809 80.5019 105.087 80.2966 105.292C80.0913 105.498 79.8129 105.613 79.5227 105.613H73.3398Z" fill="#54372B"/>
<path d="M29.0059 105.613L36.2832 104.102V104.519C36.2832 104.809 36.1679 105.087 35.9626 105.292C35.7574 105.498 35.479 105.613 35.1887 105.613H29.0059Z" fill="#54372B"/>
<path d="M86.6585 29.9473C86.6585 29.9473 86.6585 30.3512 86.6585 31.1004C86.6585 31.8497 86.7041 32.9507 86.7107 34.358C86.7172 35.7652 86.7107 37.4657 86.7107 39.4202C86.7107 41.3747 86.6129 43.5703 86.5087 45.9743C86.4044 48.3784 86.2546 50.9714 86.0657 53.7208C85.8767 56.4701 85.6487 59.3628 85.3751 62.3533C85.1014 65.3437 84.7952 68.4383 84.4499 71.5721C84.2675 73.1357 84.0851 74.7189 83.9026 76.302C83.5443 79.2664 83.6681 79.9961 83.0166 80.0287L46.7276 80.159H30.707L46.7211 79.957C91.3624 79.5726 80.0262 79.6703 83.0036 79.6508C83.0342 79.6492 83.0631 79.6364 83.0848 79.6147C83.1064 79.593 83.1193 79.5641 83.1208 79.5335C83.2642 78.439 83.186 79.0644 83.5378 76.276C83.7333 74.695 83.9244 73.1205 84.1111 71.5525C84.476 68.4188 84.8017 65.3372 85.0819 62.3467C85.362 59.3563 85.6096 56.4832 85.8181 53.7208C86.0266 50.9584 86.1764 48.3784 86.3002 45.9809C86.424 43.5833 86.5152 41.3812 86.5673 39.4332C86.6194 37.4852 86.6455 35.7848 86.6781 34.384C86.7106 32.9833 86.6781 31.8757 86.6781 31.1265C86.6781 30.3773 86.6585 29.9473 86.6585 29.9473Z" fill="#54372B"/>
<path d="M24.875 46.8408C25.1299 48.2947 24.9297 49.7918 24.3017 51.1277C24.9162 50.2931 25.2349 49.2775 25.2073 48.2415C25.2734 46.9068 25.0511 45.5736 24.5558 44.3324C24.2142 43.3635 23.5759 42.5268 22.7315 41.9414L21.2461 42.0391C22.9074 41.772 24.4645 43.9481 24.875 46.8408Z" fill="#54372B"/>
<path d="M64.4222 40.4941H58.4414L64.4027 40.885C64.4092 40.7547 64.4222 40.6244 64.4222 40.4941Z" fill="#54372B"/>
<path d="M63.4319 41.5039C63.3751 42.3154 63.1555 43.1072 62.7861 43.832C62.4168 44.5568 61.9053 45.1998 61.2821 45.7227C60.6589 46.2456 59.9368 46.6376 59.1588 46.8754C58.3808 47.1132 57.5629 47.192 56.7539 47.1069C58.3273 46.9071 59.8139 46.2732 61.0473 45.2761C62.1591 44.2495 62.9814 42.9486 63.4319 41.5039Z" fill="#54372B"/>
<path d="M66.0894 36.9894V36.3965H52.1797L66.0894 36.9894Z" fill="#54372B"/>
<path d="M87.5889 6.16016C87.5889 6.16016 87.8104 6.5706 88.1557 7.37195C88.6364 8.54301 89.0008 9.75849 89.2437 11.0009C89.4159 11.8858 89.5377 12.7798 89.6085 13.6786C89.6932 14.6623 89.6867 15.7308 89.6932 16.8579C89.6932 19.1186 89.6932 21.666 89.6932 24.4545C89.6932 25.1451 89.6932 25.8552 89.6932 26.5784V27.1257C89.7154 27.3442 89.6977 27.5649 89.6411 27.7772C89.5989 27.8947 89.5315 28.0017 89.4438 28.0905C89.356 28.1794 89.2499 28.2481 89.1329 28.2919C89.0205 28.3332 88.9007 28.3509 88.7811 28.344H88.501H83.8557H81.4451C80.6336 28.3128 79.8209 28.3477 79.015 28.4482C78.2134 28.5915 77.4489 28.8951 76.7673 29.3408C76.4237 29.5701 76.103 29.8319 75.8096 30.1226L74.8845 31.0347L73.0146 32.8785L72.0634 33.8167C71.7122 34.156 71.2891 34.4121 70.8256 34.5659C70.365 34.7016 69.8846 34.7567 69.4053 34.7288H65.3399L54.2642 34.7613L43.1886 34.7288H39.0971C38.62 34.7567 38.1416 34.7016 37.6834 34.5659C37.2175 34.413 36.7921 34.1569 36.439 33.8167L35.4943 32.8785L33.618 31.0347C33.0439 30.4133 32.4136 29.8462 31.7351 29.3408C31.0559 28.8951 30.2935 28.5915 29.4939 28.4482C28.6858 28.3477 27.871 28.3128 27.0573 28.344H24.6467H20.0014C19.7829 28.3646 19.5624 28.347 19.3499 28.2919C19.2329 28.2481 19.1269 28.1794 19.0391 28.0905C18.9513 28.0017 18.884 27.8947 18.8418 27.7772C18.8032 27.6663 18.7856 27.5492 18.7896 27.4319V26.611C18.7896 25.8878 18.7896 25.1777 18.7896 24.4871C18.7896 21.6986 18.7896 19.1512 18.7896 16.8905C18.7896 15.7634 18.7896 14.6949 18.8678 13.7111C18.9406 12.8122 19.0646 11.9182 19.2392 11.0334C19.4821 9.79108 19.8465 8.5756 20.3272 7.40454C20.666 6.60318 20.8875 6.19272 20.8875 6.19272L20.7833 6.51848C20.7116 6.72696 20.6073 7.04621 20.477 7.46317C20.1035 8.65378 19.8011 9.86555 19.5714 11.0921C19.407 11.9666 19.2918 12.8497 19.2261 13.7372C19.148 14.7079 19.161 15.7569 19.161 16.8905C19.161 19.1512 19.161 21.6986 19.161 24.4871C19.161 25.1777 19.161 25.8878 19.161 26.611V27.3928C19.1493 27.4574 19.1493 27.5236 19.161 27.5882C19.1813 27.6464 19.2148 27.699 19.2589 27.7419C19.303 27.7849 19.3565 27.817 19.4151 27.8358C19.5725 27.8621 19.7332 27.8621 19.8907 27.8358H24.5359H26.9595C27.8012 27.798 28.6446 27.8307 29.4809 27.9335C30.3513 28.0818 31.1825 28.4054 31.924 28.8848C32.2934 29.1339 32.64 29.4151 32.9599 29.7252L34.0023 30.6503C34.6539 31.2627 35.2532 31.8687 35.8852 32.4876L36.8364 33.4127C37.1273 33.694 37.4798 33.9037 37.8658 34.0251C38.2688 34.1458 38.6909 34.19 39.1102 34.1554H40.4653H43.1951H54.2708H65.3464H68.0697H69.4248C69.8441 34.1907 70.2663 34.1465 70.6692 34.0251C71.0576 33.9046 71.4123 33.6949 71.7051 33.4127L72.6563 32.4876L74.5392 30.6503L75.4708 29.7447C75.7894 29.4331 76.1362 29.1518 76.5067 28.9043C77.2476 28.4236 78.079 28.0999 78.9499 27.9531C79.7839 27.8502 80.6252 27.8175 81.4647 27.8554H83.8883H88.5335C88.6934 27.8782 88.8558 27.8782 89.0157 27.8554C89.0729 27.8353 89.1248 27.8027 89.1677 27.7598C89.2105 27.7169 89.2432 27.665 89.2632 27.6078C89.2977 27.454 89.3087 27.2958 89.2958 27.1387V26.5914C89.2958 25.8683 89.2958 25.1581 89.2958 24.4675C89.2958 21.6791 89.2958 19.1317 89.2958 16.8709C89.2958 15.7373 89.2958 14.6884 89.2372 13.7177C89.1716 12.8302 89.0563 11.9471 88.8919 11.0725C88.6607 9.84575 88.3561 8.63394 87.9798 7.44363C87.8495 7.02666 87.7517 6.70742 87.6736 6.49893L87.5889 6.16016Z" fill="#54372B"/>
<path d="M88.892 98.0221C88.892 98.0221 88.8008 98.2958 88.5858 98.7909C88.2787 99.512 87.9216 100.211 87.5173 100.882C87.2469 101.262 86.8945 101.577 86.4863 101.802C86.0781 102.028 85.6245 102.159 85.1589 102.185C84.8071 102.185 84.5074 102.185 84.136 102.185H79.4451C72.5783 102.231 63.4246 102.185 54.2644 102.185C45.1042 102.185 35.9505 102.185 29.0836 102.185H24.3992C24.0474 102.185 23.7477 102.185 23.3829 102.185C23.0425 102.169 22.7076 102.094 22.3926 101.964C21.8385 101.742 21.3609 101.364 21.0179 100.876C20.612 100.204 20.2529 99.5054 19.9429 98.7844C19.7344 98.2893 19.6367 98.0156 19.6367 98.0156C19.6367 98.0156 19.8191 98.2371 20.1319 98.6671C20.4446 99.0971 20.8616 99.8008 21.3567 100.622C21.6563 101.04 22.0702 101.364 22.549 101.553C22.8201 101.658 23.1059 101.719 23.3959 101.736H24.3992H29.0836C35.9505 101.69 45.1107 101.736 54.2644 101.736C63.418 101.736 72.5783 101.736 79.4451 101.736H84.136H85.1328C85.423 101.72 85.7088 101.658 85.9798 101.553C86.4585 101.364 86.8724 101.04 87.172 100.622C87.6737 99.8008 88.0907 99.0971 88.3969 98.6671C88.7031 98.2371 88.892 98.0221 88.892 98.0221Z" fill="#54372B"/>
<path d="M23.5527 2.44615L33.1494 2.29631L42.9872 2.21811L54.2648 2.18555L65.5424 2.21811L75.3867 2.29631L84.9834 2.44615L75.3867 2.58948L65.5424 2.67418L54.2648 2.70675L43.0068 2.66766L33.169 2.58948L23.5527 2.44615Z" fill="#54372B"/>
<path d="M89.2642 89.748L89.0818 89.8393C88.908 89.9268 88.7297 90.0051 88.5476 90.0738C87.8509 90.3534 87.1371 90.5884 86.4106 90.7774C85.479 91.025 84.3323 91.2791 83.0098 91.5136C81.6872 91.7482 80.1822 91.9762 78.5339 92.1652C76.8856 92.3541 75.1005 92.5235 73.2111 92.6798L70.2988 92.8818L67.2563 93.0317C65.1845 93.1098 63.0476 93.188 60.878 93.2271C58.7085 93.2662 56.4999 93.2857 54.2913 93.3053C52.0827 93.3248 49.8871 93.3053 47.7111 93.2271C45.535 93.1489 43.3981 93.1098 41.3328 93.0317L38.2903 92.8818L35.378 92.6798C33.4821 92.53 31.697 92.3541 30.0552 92.1652C28.4134 91.9762 26.9019 91.7547 25.5793 91.5136C24.2568 91.2726 23.1101 91.025 22.172 90.7774C21.4487 90.5871 20.7374 90.3544 20.0415 90.0803C19.8005 89.9826 19.6181 89.8979 19.5008 89.8393L19.3184 89.748L19.5073 89.8262C19.6839 89.9119 19.8669 89.9838 20.0546 90.0412C20.7583 90.2882 21.4763 90.4927 22.2045 90.6537C23.1427 90.8686 24.2894 91.0836 25.6184 91.3052C26.9475 91.5267 28.4525 91.6635 30.0943 91.8329C31.7361 92.0023 33.5212 92.1261 35.4106 92.2368C37.3 92.3476 39.3196 92.4192 41.3524 92.5039C43.3851 92.5886 45.5481 92.6277 47.7176 92.6538C49.8871 92.6798 52.0957 92.6538 54.2913 92.6929C56.4869 92.732 58.702 92.6929 60.865 92.6538C63.028 92.6147 65.1715 92.5691 67.2302 92.5039L70.2728 92.3801L73.1785 92.2368C75.0679 92.1261 76.853 91.9892 78.4948 91.8329C80.1366 91.6765 81.6416 91.5006 82.9707 91.3052C84.2997 91.1097 85.4464 90.8947 86.3846 90.6537C87.1126 90.4918 87.8305 90.2873 88.5345 90.0412C88.7214 89.9814 88.9042 89.9096 89.0818 89.8262L89.2642 89.748Z" fill="#54372B"/>
<path d="M24.4062 43.1857C24.4062 43.1857 25.9373 42.9707 28.2436 42.7166C29.3903 42.6059 30.7324 42.443 32.1527 42.3127L36.6676 41.9088L41.1891 41.57C42.6289 41.4592 43.9841 41.3941 45.1372 41.3224C47.4501 41.1921 48.9942 41.1465 48.9942 41.1465C48.9942 41.1465 47.4631 41.3615 45.1633 41.6156C44.0101 41.7328 42.668 41.8892 41.2542 42.0195L36.7328 42.4235L32.2113 42.7622C30.7715 42.873 29.4229 42.9381 28.2632 43.0098C25.9503 43.1401 24.4062 43.1857 24.4062 43.1857Z" fill="#54372B"/>
<path d="M60.2838 14.2781C58.8913 12.887 57.0595 12.0217 55.1006 11.8297C53.1416 11.6376 51.1767 12.1307 49.5405 13.2249C47.9043 14.319 46.6981 15.9466 46.1273 17.8304C45.5565 19.7141 45.6565 21.7375 46.4102 23.5558C47.1639 25.3742 48.5247 26.8749 50.2608 27.8025C51.9969 28.73 54.0008 29.027 55.9313 28.6428C57.8618 28.2586 59.5993 27.217 60.8479 25.6954C62.0966 24.1738 62.779 22.2663 62.7791 20.298C62.7785 18.0399 61.8809 15.8745 60.2838 14.2781ZM48.7065 14.7406C50.1009 13.3478 51.9674 12.5294 53.9365 12.4474C55.9056 12.3653 57.8338 13.0256 59.3391 14.2976L48.2635 25.3733C46.9893 23.8693 46.3269 21.9413 46.4077 19.9718C46.4886 18.0023 47.3068 16.1351 48.7 14.7406H48.7065ZM59.8278 25.8554C58.4322 27.2491 56.564 28.0675 54.5933 28.1483C52.6227 28.2292 50.6937 27.5666 49.1887 26.2919L60.2643 15.2162C61.5385 16.7202 62.2009 18.6482 62.1201 20.6177C62.0392 22.5872 61.221 24.4544 59.8278 25.8489V25.8554Z" fill="#54372B"/>
<path d="M51.4757 21.2814L53.3651 19.4181L55.2284 17.5287L56.8311 15.8609C57.7693 14.8771 58.3752 14.2061 58.3752 14.2061C58.3752 14.2061 57.7237 14.8119 56.7138 15.7436L55.046 17.3528L53.1566 19.2162L51.2933 21.1055L49.6906 22.7734C48.7524 23.7572 48.1465 24.4282 48.1465 24.4282C48.1465 24.4282 48.798 23.8223 49.8078 22.8906L51.4757 21.2814Z" fill="#54372B"/>
<path d="M58.7001 17.7046L57.0323 19.3073L55.1429 21.1706L53.2796 23.06L51.6704 24.7343C50.7387 25.7116 50.1328 26.3892 50.1328 26.3892C50.1328 26.3892 50.7843 25.7833 51.7876 24.8451L53.4294 23.2424L55.3188 21.3791L57.1821 19.4897L58.7914 17.8218C59.723 16.8381 60.3289 16.167 60.3289 16.167C60.3289 16.167 59.6839 16.7729 58.7001 17.7046Z" fill="#54372B"/>
<path d="M64.3112 14.0824C61.8876 10.8965 58.3695 8.79862 54.278 8.79862C50.1866 8.79862 46.6554 10.89 44.2188 14.0824C45.2098 12.2855 46.6646 10.7874 48.4316 9.74407C50.1985 8.70074 52.213 8.15039 54.265 8.15039C56.317 8.15039 58.3315 8.70074 60.0984 9.74407C61.8654 10.7874 63.3202 12.2855 64.3112 14.0824Z" fill="#54372B"/>
<path d="M84.1292 10.7148H69.1575C68.6897 10.7148 68.3105 11.094 68.3105 11.5618V18.546C68.3105 19.0137 68.6897 19.3929 69.1575 19.3929H84.1292C84.5969 19.3929 84.9761 19.0137 84.9761 18.546V11.5618C84.9761 11.094 84.5969 10.7148 84.1292 10.7148Z" fill="#54372B"/>
<path d="M84.3377 11.5479V18.5581C84.3386 18.5834 84.3343 18.6087 84.3252 18.6324C84.3161 18.6561 84.3023 18.6777 84.2847 18.6959C84.2671 18.7141 84.2459 18.7287 84.2226 18.7386C84.1992 18.7485 84.1741 18.7535 84.1487 18.7535H69.1641C76.1417 17.4831 81.6274 15.3266 84.3377 11.5479Z" fill="#F8E4BE"/>
<path d="M70.5842 22.6759C70.5842 22.8875 70.5214 23.0944 70.4037 23.2702C70.286 23.4461 70.1187 23.583 69.9231 23.6637C69.7275 23.7443 69.5123 23.7651 69.3049 23.7234C69.0974 23.6816 68.9071 23.5792 68.7579 23.4291C68.6087 23.279 68.5075 23.088 68.467 22.8803C68.4265 22.6726 68.4486 22.4576 68.5305 22.2625C68.6124 22.0674 68.7503 21.901 68.9269 21.7843C69.1034 21.6677 69.3107 21.6062 69.5223 21.6074C69.6623 21.6074 69.8009 21.6351 69.9302 21.6889C70.0594 21.7427 70.1768 21.8215 70.2755 21.9208C70.3742 22.0201 70.4523 22.1379 70.5053 22.2675C70.5582 22.3971 70.5851 22.5359 70.5842 22.6759Z" fill="#54372B"/>
<path d="M73.0795 23.7372C73.666 23.7372 74.1415 23.2617 74.1415 22.6752C74.1415 22.0887 73.666 21.6133 73.0795 21.6133C72.493 21.6133 72.0176 22.0887 72.0176 22.6752C72.0176 23.2617 72.493 23.7372 73.0795 23.7372Z" fill="#54372B"/>
<path d="M76.644 23.7372C77.2305 23.7372 77.7059 23.2617 77.7059 22.6752C77.7059 22.0887 77.2305 21.6133 76.644 21.6133C76.0575 21.6133 75.582 22.0887 75.582 22.6752C75.582 23.2617 76.0575 23.7372 76.644 23.7372Z" fill="#54372B"/>
<path d="M80.2084 23.7372C80.7949 23.7372 81.2704 23.2617 81.2704 22.6752C81.2704 22.0887 80.7949 21.6133 80.2084 21.6133C79.6219 21.6133 79.1465 22.0887 79.1465 22.6752C79.1465 23.2617 79.6219 23.7372 80.2084 23.7372Z" fill="#54372B"/>
<path d="M83.7788 23.7372C84.3653 23.7372 84.8407 23.2617 84.8407 22.6752C84.8407 22.0887 84.3653 21.6133 83.7788 21.6133C83.1923 21.6133 82.7168 22.0887 82.7168 22.6752C82.7168 23.2617 83.1923 23.7372 83.7788 23.7372Z" fill="#54372B"/>
<path d="M28.1777 12.1992H31.331C31.547 12.1992 31.7541 12.285 31.9068 12.4377C32.0595 12.5905 32.1453 12.7976 32.1453 13.0136V21.4376C32.1453 21.6536 32.0595 21.8607 31.9068 22.0135C31.7541 22.1662 31.547 22.252 31.331 22.252H28.1777C27.9617 22.252 27.7545 22.1662 27.6018 22.0135C27.4491 21.8607 27.3633 21.6536 27.3633 21.4376V13.0136C27.365 12.7981 27.4513 12.592 27.6037 12.4396C27.7561 12.2873 27.9622 12.2009 28.1777 12.1992Z" fill="#54372B"/>
<path d="M31.3312 12.8379H28.1779C28.0807 12.8379 28.002 12.9166 28.002 13.0138V21.4378C28.002 21.5349 28.0807 21.6137 28.1779 21.6137H31.3312C31.4283 21.6137 31.5071 21.5349 31.5071 21.4378V13.0138C31.5071 12.9166 31.4283 12.8379 31.3312 12.8379Z" fill="#F8E4BE"/>
<path d="M28.3203 21.2948C29.9947 20.7997 30.8807 19.0797 31.1869 16.4541V21.2948H28.3203Z" fill="#54372B"/>
<path d="M29.7554 14.3175C29.9354 14.3175 30.0812 14.1717 30.0812 13.9918C30.0812 13.8119 29.9354 13.666 29.7554 13.666C29.5755 13.666 29.4297 13.8119 29.4297 13.9918C29.4297 14.1717 29.5755 14.3175 29.7554 14.3175Z" fill="#54372B"/>
<path d="M35.3373 14.3231C35.5474 14.3231 35.7527 14.2608 35.9273 14.1441C36.102 14.0275 36.2381 13.8616 36.3185 13.6676C36.3988 13.4735 36.4199 13.26 36.3789 13.054C36.3379 12.848 36.2368 12.6588 36.0883 12.5102C35.9397 12.3617 35.7505 12.2606 35.5445 12.2196C35.3385 12.1787 35.125 12.1997 34.931 12.28C34.7369 12.3604 34.5711 12.4965 34.4544 12.6712C34.3377 12.8458 34.2754 13.0511 34.2754 13.2612C34.2754 13.5428 34.3873 13.8129 34.5864 14.0121C34.7856 14.2112 35.0557 14.3231 35.3373 14.3231Z" fill="#54372B"/>
<path d="M35.3387 16.1602C35.1271 16.1589 34.9198 16.2205 34.7433 16.3371C34.5667 16.4537 34.4288 16.6201 34.3469 16.8152C34.265 17.0103 34.2429 17.2254 34.2834 17.4331C34.3239 17.6408 34.4251 17.8317 34.5743 17.9818C34.7235 18.1319 34.9138 18.2343 35.1213 18.2761C35.3287 18.3178 35.5439 18.2971 35.7395 18.2164C35.9351 18.1357 36.1024 17.9988 36.2201 17.8229C36.3378 17.6471 36.4006 17.4402 36.4006 17.2286C36.4015 17.0886 36.3746 16.9498 36.3217 16.8203C36.2687 16.6907 36.1906 16.5728 36.0919 16.4735C35.9932 16.3742 35.8758 16.2954 35.7466 16.2416C35.6173 16.1879 35.4787 16.1602 35.3387 16.1602Z" fill="#54372B"/>
<path d="M35.3386 20.1289C35.1268 20.1276 34.9193 20.1894 34.7426 20.3063C34.5659 20.4232 34.4279 20.59 34.3463 20.7855C34.2646 20.981 34.2429 21.1964 34.2839 21.4042C34.3249 21.6121 34.4268 21.8031 34.5766 21.9529C34.7264 22.1027 34.9174 22.2046 35.1253 22.2456C35.3332 22.2866 35.5485 22.2649 35.744 22.1833C35.9395 22.1016 36.1063 21.9636 36.2232 21.7869C36.3402 21.6102 36.4019 21.4028 36.4006 21.1909C36.4006 20.9092 36.2887 20.6391 36.0896 20.44C35.8904 20.2408 35.6203 20.1289 35.3386 20.1289Z" fill="#54372B"/>
<path d="M49.6393 97.2088C49.6056 97.287 49.5569 97.3579 49.496 97.4173C49.5579 97.4774 49.6086 97.548 49.6458 97.6258C49.6822 97.7056 49.701 97.7922 49.701 97.8799C49.701 97.9676 49.6822 98.0542 49.6458 98.134C49.5971 98.2264 49.5281 98.3066 49.4439 98.3685C49.3583 98.4371 49.2612 98.49 49.1572 98.5249C49.0444 98.5654 48.9252 98.5853 48.8054 98.5835H47.1896V97.6975H46.916V97.1437H47.2027V96.2511H48.7989C49.0341 96.2399 49.2654 96.3139 49.4504 96.4596C49.5316 96.5189 49.598 96.5963 49.6444 96.6856C49.6907 96.7749 49.7157 96.8737 49.7175 96.9743C49.7084 97.0571 49.6818 97.1371 49.6393 97.2088ZM48.9357 96.857C48.8933 96.8228 48.8403 96.8043 48.7858 96.8049H47.8802V97.1437H48.7858C48.8403 97.1442 48.8933 97.1258 48.9357 97.0916C48.9545 97.0783 48.9699 97.0608 48.9805 97.0404C48.9911 97.02 48.9966 96.9973 48.9966 96.9743C48.9966 96.9513 48.9911 96.9286 48.9805 96.9082C48.9699 96.8878 48.9545 96.8702 48.9357 96.857ZM48.9357 97.7431C48.8927 97.7107 48.8396 97.6945 48.7858 97.6975H47.8802V98.0297H48.7858C48.8403 98.0303 48.8933 98.0119 48.9357 97.9776C48.9545 97.9644 48.9699 97.9468 48.9805 97.9264C48.9911 97.906 48.9966 97.8833 48.9966 97.8603C48.9966 97.8373 48.9911 97.8147 48.9805 97.7943C48.9699 97.7739 48.9545 97.7563 48.9357 97.7431Z" fill="#54372B"/>
<path d="M52.7801 97.5999C52.7033 97.7258 52.6013 97.8345 52.4804 97.9191C52.566 98.0117 52.6363 98.1172 52.6889 98.2318C52.735 98.3434 52.7594 98.4629 52.7605 98.5836H52.0699C52.0716 98.5008 52.049 98.4192 52.0048 98.3491C51.9576 98.2703 51.893 98.2035 51.8158 98.1536H51.0145V98.5771H50.3239V98.1536H49.8613V97.5999H50.3239V96.2447H51.6921C51.9986 96.2355 52.2985 96.3347 52.539 96.5249C52.6435 96.5994 52.7296 96.6969 52.7905 96.8098C52.8515 96.9227 52.8858 97.0481 52.8908 97.1764C52.8902 97.3246 52.8521 97.4703 52.7801 97.5999ZM52.0439 96.9484C51.9408 96.8704 51.8147 96.8292 51.6855 96.8311H51.034V97.6324H51.6855C51.8147 97.6344 51.9408 97.5931 52.0439 97.5152C52.0892 97.4825 52.1259 97.4394 52.1508 97.3895C52.1758 97.3396 52.1883 97.2843 52.1872 97.2285C52.1917 97.1701 52.1815 97.1115 52.1576 97.0581C52.1337 97.0046 52.0969 96.9579 52.0504 96.9223L52.0439 96.9484Z" fill="#54372B"/>
<path d="M55.047 98.5831V98.1596H54.0827V98.5831H53.3856V98.1596H53.0859V97.6058H53.3856V97.1368C53.3874 97.0085 53.4196 96.8826 53.4796 96.7693C53.5397 96.656 53.6258 96.5586 53.7309 96.4852C53.9662 96.3018 54.2546 96.1995 54.5529 96.1936C54.8512 96.1878 55.1434 96.2786 55.3858 96.4527C55.4898 96.5272 55.5751 96.6248 55.635 96.7378C55.6949 96.8509 55.7278 96.9763 55.7311 97.1042V98.5505L55.047 98.5831ZM55.047 97.4886V97.1368C55.0462 97.0838 55.0336 97.0317 55.0099 96.9843C54.9862 96.9369 54.9521 96.8955 54.9102 96.8631C54.8121 96.7852 54.6901 96.7438 54.5649 96.7459C54.4395 96.7427 54.3171 96.7842 54.2196 96.8631C54.1768 96.8952 54.1417 96.9363 54.1169 96.9837C54.0921 97.031 54.0782 97.0833 54.0762 97.1368V97.6058H55.047V97.4886Z" fill="#54372B"/>
<path d="M58.0503 98.5832V96.8046H57.275C57.1176 96.8022 56.9639 96.8526 56.8385 96.9479C56.7826 96.9866 56.7369 97.0382 56.7051 97.0983C56.6734 97.1584 56.6566 97.2252 56.6561 97.2932V98.5962H55.959V96.2638H56.6887V96.3876C56.7828 96.3466 56.8811 96.316 56.9819 96.2964C57.0892 96.2753 57.1982 96.2643 57.3076 96.2638H58.122C58.2886 96.2605 58.4516 96.3132 58.5846 96.4137C58.6422 96.4572 58.6891 96.5132 58.7219 96.5776C58.7546 96.6419 58.7723 96.7129 58.7735 96.785V98.5962L58.0503 98.5832Z" fill="#54372B"/>
<path d="M61.3917 98.4071C61.2608 98.5122 61.097 98.5676 60.9291 98.5634H58.9746V96.231H60.9291C61.0962 96.2244 61.2602 96.2775 61.3917 96.3809C61.4502 96.425 61.4977 96.4821 61.5304 96.5477C61.5632 96.6132 61.5804 96.6855 61.5806 96.7587V98.0618C61.5756 98.1295 61.5562 98.1953 61.5236 98.2549C61.491 98.3144 61.446 98.3663 61.3917 98.4071ZM60.89 96.7848H59.6717V98.0096H60.89V96.7848Z" fill="#54372B"/>
</svg>
