<svg width="108" height="107" viewBox="0 0 108 107" fill="none" xmlns="http://www.w3.org/2000/svg">
<path d="M54.1737 66.8082C59.5919 66.862 64.9716 65.8936 70.031 63.9539C74.9825 69.4681 83.6273 70.2252 83.6273 70.2252C93.0599 75.2279 92.4358 79.5349 93.4384 83.9545C93.5757 84.5891 93.8875 85.1727 94.3384 85.6398C94.7894 86.1068 95.3618 86.4388 95.9912 86.5982C96.6205 86.7577 97.2819 86.7384 97.9009 86.5424C98.5199 86.3465 99.0719 85.9817 99.4948 85.4891C100.913 83.7615 101.996 81.7836 102.687 79.6577C108.713 59.9947 98.3286 54.0814 98.3286 54.0814C98.6457 31.339 78.3893 30.275 78.3893 30.275V30.3466C71.6167 19.5023 54.1532 20.0036 54.1532 20.0036C54.1532 20.0036 36.6897 19.5023 29.9069 30.3466V30.275C29.9069 30.275 9.70164 31.2981 9.99832 54.0098C9.99832 54.0098 -0.385642 59.964 5.64013 79.5861C6.33735 81.7113 7.42313 83.6887 8.84227 85.4175C9.26388 85.9108 9.81511 86.2764 10.4336 86.4728C11.0521 86.6693 11.7133 86.6888 12.3423 86.5292C12.9713 86.3695 13.5431 86.0371 13.9931 85.5694C14.443 85.1018 14.7532 84.5176 14.8885 83.8829C15.9116 79.4633 15.2773 75.1563 24.7098 70.1536C24.7098 70.1536 33.3546 69.3965 38.3062 63.8823C43.3636 65.8491 48.7473 66.8419 54.1737 66.8082Z" fill="#F8E4BE"/>
<path d="M78.3066 48.2503C80.1997 45.0976 81.3735 41.5659 81.7441 37.9073C81.9204 35.4371 81.6146 32.9561 80.8438 30.6027C80.035 30.4223 79.2146 30.2992 78.3885 30.2344C79.7361 32.6156 80.4708 35.2945 80.5267 38.03C80.5334 41.5571 79.776 45.0439 78.3066 48.2503Z" fill="#54372B"/>
<path d="M26.6017 37.9068C26.9673 41.5665 28.1414 45.0993 30.0391 48.2498C28.5688 45.0397 27.8081 41.5501 27.8089 38.0193C27.8711 35.2846 28.6054 32.6073 29.9471 30.2236C29.121 30.2885 28.3005 30.4116 27.4918 30.5919C26.7231 32.9493 26.4208 35.4338 26.6017 37.9068Z" fill="#54372B"/>
<path d="M97.7862 59.6677C98.6786 58.3147 99.3873 56.8491 99.8937 55.3095C99.4221 54.8193 98.8971 54.3835 98.3284 54.0102C98.3284 53.867 98.3284 53.7238 98.3284 53.5703C97.8853 57.7523 96.0517 61.6646 93.1211 64.6806C94.942 63.2785 96.5184 61.5846 97.7862 59.6677Z" fill="#54372B"/>
<path d="M15.2262 64.7109C12.2881 61.6977 10.4471 57.7851 9.9984 53.6006C9.9984 53.754 9.9984 53.8973 9.9984 54.0405C9.43368 54.4031 8.91199 54.8287 8.44336 55.3091C8.93017 56.8457 9.61818 58.3112 10.4895 59.6673C11.7799 61.5979 13.3803 63.302 15.2262 64.7109Z" fill="#54372B"/>
<path d="M100.027 60.332C102.186 63.9127 102.544 68.3016 102.073 72.3836C101.602 76.4655 100.221 80.6805 97.2852 83.6371C101.179 76.5158 102.162 68.1626 100.027 60.332Z" fill="#54372B"/>
<path d="M8.3102 60.332C6.15514 68.1714 7.12709 76.5412 11.0213 83.6781C8.0749 80.7112 6.71424 76.5167 6.23341 72.4245C5.75258 68.3323 6.1618 63.9025 8.3102 60.332Z" fill="#54372B"/>
<path d="M83.248 34.2236C85.3157 34.6965 87.2666 35.5817 88.984 36.8263C90.7015 38.0709 92.1501 39.6492 93.2432 41.4668C95.3745 45.2785 96.1601 49.6967 95.4735 54.0094C94.8392 49.9172 94.164 45.825 92.0156 42.2034C89.8689 38.7992 86.8387 36.0413 83.248 34.2236Z" fill="#54372B"/>
<path d="M25.098 34.2236C21.5066 36.0355 18.4758 38.7904 16.3304 42.1932C14.1718 45.825 13.4966 49.9172 12.8623 54.0094C12.1819 49.6944 12.9747 45.276 15.113 41.4668C16.2036 39.6492 17.6503 38.0706 19.3661 36.8259C21.0819 35.5813 23.0316 34.6961 25.098 34.2236Z" fill="#54372B"/>
<path d="M32.3516 31.8198C33.7703 29.3248 35.8202 27.2468 38.2955 25.794C41.3301 24.0763 44.6506 22.9221 48.0963 22.3873C55.0019 21.2107 62.6748 21.9269 68.9666 25.17C71.9039 26.6591 74.3456 28.9693 75.9949 31.8198C74.1655 29.6744 71.8935 27.9503 69.3349 26.7659C66.4075 25.4632 63.3056 24.5947 60.1274 24.1878C53.4344 23.2059 46.6022 23.9092 40.2495 26.2339C37.1922 27.408 34.4771 29.3282 32.3516 31.8198Z" fill="#54372B"/>
<path d="M35.503 34.0706C35.237 34.1422 35.0324 34.5003 34.7971 35.3494L34.4492 36.618L35.0426 35.8405C35.7792 34.8481 36.0145 33.9376 35.503 34.0706Z" fill="#54372B"/>
<path d="M69.5712 31.9839C69.4075 32.3522 69.4382 32.5057 69.7349 32.8944C70.4204 33.7845 70.6557 32.7717 69.9907 31.8714C69.8065 31.6054 69.7145 31.6361 69.5712 31.9839Z" fill="#54372B"/>
<path d="M53.4464 32.2397C53.6716 32.1656 53.9055 32.1209 54.1421 32.1067C54.3979 32.1067 54.3467 32.0044 53.9068 31.5952C53.4669 31.186 53.2214 31.1041 53.1191 31.8714C53.0679 32.3216 53.0986 32.3625 53.4464 32.2397Z" fill="#54372B"/>
<path d="M18.2433 44.5879C18.4685 44.5138 18.7023 44.4691 18.939 44.4549C19.1947 44.4549 19.1436 44.3526 18.6934 43.9434C18.2433 43.5342 18.0182 43.4421 17.9159 44.2196C17.8648 44.6698 17.8955 44.7107 18.2433 44.5879Z" fill="#54372B"/>
<path d="M15.9414 48.6183C15.9414 48.8229 16.0233 48.9968 16.1358 48.9968C16.2483 48.9968 16.4222 48.8229 16.5041 48.6183C16.5859 48.4137 16.5041 48.25 16.3097 48.25C16.2128 48.2526 16.1207 48.2922 16.0521 48.3607C15.9836 48.4293 15.944 48.5214 15.9414 48.6183Z" fill="#54372B"/>
<path d="M88.5781 50.8078C88.5781 51.0124 88.66 51.1863 88.7725 51.1863C88.885 51.1863 89.059 51.0124 89.1408 50.8078C89.2227 50.6031 89.1408 50.4395 88.9464 50.4395C88.8496 50.442 88.7574 50.4817 88.6889 50.5502C88.6203 50.6187 88.5807 50.7109 88.5781 50.8078Z" fill="#54372B"/>
<path d="M33.3644 41.0477C33.303 40.618 33.2211 40.5873 32.8222 40.843L32.3516 41.15L32.7608 41.4671C33.2723 41.8661 33.4667 41.7331 33.3644 41.0477Z" fill="#54372B"/>
<path d="M19.9933 51.6877C19.9319 51.2682 19.8501 51.2375 19.4511 51.4831L18.9805 51.79L19.3897 52.1071C19.9012 52.5061 20.0956 52.3731 19.9933 51.6877Z" fill="#54372B"/>
<path d="M66.6646 29.4564C66.7028 29.544 66.7658 29.6186 66.8457 29.6709C66.9257 29.7233 67.0192 29.7512 67.1148 29.7512C67.2104 29.7512 67.3039 29.7233 67.3838 29.6709C67.4638 29.6186 67.5267 29.544 67.5649 29.4564C67.7286 29.2006 67.6979 29.1085 67.3603 28.8221C67.1911 28.6677 66.9878 28.5555 66.767 28.4947C66.4907 28.4333 66.4396 29.0165 66.6646 29.4564Z" fill="#54372B"/>
<path d="M88.4569 47.3801C88.4951 47.4678 88.558 47.5423 88.638 47.5947C88.7179 47.6471 88.8114 47.675 88.907 47.675C89.0026 47.675 89.0961 47.6471 89.1761 47.5947C89.256 47.5423 89.319 47.4678 89.3572 47.3801C89.5106 47.1346 89.4799 47.0425 89.1423 46.7561C88.9758 46.5979 88.7715 46.4852 88.5489 46.4287C88.2829 46.4492 88.2216 46.9812 88.4569 47.3801Z" fill="#54372B"/>
<path d="M15.7998 52.6188C16.0351 52.9053 16.3113 52.6188 16.2295 52.1482C16.2075 52.0605 16.1578 51.9822 16.0878 51.9251C16.0177 51.8679 15.9311 51.835 15.8408 51.8311C15.5031 51.8311 15.4827 52.23 15.7998 52.6188Z" fill="#54372B"/>
<path d="M56.5264 26.0299C56.7822 26.2652 56.9664 26.3061 57.0277 26.1322C57.0891 25.9583 56.7311 25.6412 56.5162 25.7332C56.3014 25.8253 56.3423 25.8662 56.5264 26.0299Z" fill="#54372B"/>
<path d="M21.5988 44.4338C21.8546 44.6691 22.0387 44.6998 22.1001 44.5258C22.1615 44.3519 21.8034 44.0348 21.5783 44.1371C21.3533 44.2394 21.4146 44.2598 21.5988 44.4338Z" fill="#54372B"/>
<path d="M49.3248 34.3058C49.6726 34.6741 49.7135 34.6639 49.9488 34.1012C50.1841 33.5385 50.0921 33.0781 49.6828 33.0781C49.2736 33.0781 48.9872 33.9273 49.3248 34.3058Z" fill="#54372B"/>
<path d="M67.8005 37.2831C67.7392 37.3244 67.6898 37.3811 67.6575 37.4476C67.6252 37.5141 67.611 37.5879 67.6163 37.6616C67.6163 37.7844 67.8005 37.856 68.0665 37.856C68.3325 37.856 68.5064 37.7333 68.1995 37.3036C68.0563 37.099 68.0256 37.099 67.8005 37.2831Z" fill="#54372B"/>
<path d="M52.7206 26.7457C52.7675 26.9788 52.8503 27.2031 52.9662 27.4107C53.2117 27.8506 53.5186 27.7074 53.6721 27.1038C53.8255 26.5002 53.7949 26.4081 53.1913 26.3672C52.7718 26.3876 52.69 26.3876 52.7206 26.7457Z" fill="#54372B"/>
<path d="M57.6015 33.4775C57.2946 33.4775 57.315 33.897 57.6015 34.1016C57.8879 34.3062 57.9186 34.2448 57.9596 34.1016C58.0005 33.9584 57.8266 33.4775 57.6015 33.4775Z" fill="#54372B"/>
<path d="M23.7693 37.8867C23.4522 37.8867 23.4726 38.3062 23.7693 38.5108C24.066 38.7154 24.0864 38.654 24.1274 38.5108C24.1683 38.3676 23.9842 37.8867 23.7693 37.8867Z" fill="#54372B"/>
<path d="M14.8684 55.6263C14.3568 55.6263 14.0602 56.1787 14.4387 56.4242C14.8172 56.6698 15.1037 56.5163 15.2162 56.0252C15.2277 55.9749 15.2271 55.9226 15.2145 55.8726C15.202 55.8225 15.1777 55.7761 15.1438 55.7372C15.1099 55.6983 15.0673 55.668 15.0194 55.6487C14.9715 55.6294 14.9198 55.6217 14.8684 55.6263Z" fill="#54372B"/>
<path d="M91.2284 52.271C90.7168 52.271 90.4099 52.8235 90.7987 53.069C91.1874 53.3145 91.4637 53.1611 91.5762 52.6802C91.5896 52.6292 91.5905 52.5758 91.5789 52.5243C91.5672 52.4729 91.5432 52.4251 91.5091 52.3849C91.4749 52.3447 91.4315 52.3134 91.3827 52.2935C91.3338 52.2737 91.2809 52.266 91.2284 52.271Z" fill="#54372B"/>
<path d="M17.6925 54.9609C17.6012 54.965 17.5143 55.001 17.4469 55.0627C17.3796 55.1245 17.3362 55.208 17.3242 55.2985C17.3242 55.4827 17.3856 55.6259 17.4981 55.6259C17.6107 55.6259 17.7744 55.4827 17.8664 55.2985C17.9585 55.1144 17.8767 54.9609 17.6925 54.9609Z" fill="#54372B"/>
<path d="M92.0573 56.1992C91.9672 56.2036 91.8816 56.24 91.8159 56.3019C91.7503 56.3638 91.7089 56.4471 91.6992 56.5368C91.6992 56.7107 91.7606 56.8642 91.8731 56.8642C91.9857 56.8642 92.1494 56.7107 92.2312 56.5368C92.3131 56.3629 92.2414 56.1992 92.0573 56.1992Z" fill="#54372B"/>
<path d="M60.855 27.4823C60.9368 27.8097 60.9777 27.8097 61.5404 27.4823C62.1031 27.155 62.0417 26.9094 61.479 26.889C60.9164 26.8685 60.7629 27.0936 60.855 27.4823Z" fill="#54372B"/>
<path d="M38.5004 30.7148C38.4545 30.7671 38.3978 30.8088 38.3342 30.8371C38.2706 30.8653 38.2017 30.8795 38.1321 30.8785C37.774 30.8785 37.6513 30.9808 37.6206 31.3184C37.5899 31.656 37.6206 31.6151 37.948 31.6662L38.4288 31.7685C38.5004 31.7685 38.5822 31.6764 38.6129 31.5434C38.6436 31.4105 38.7152 31.2877 38.7766 31.2877C38.838 31.2877 38.8585 31.2263 38.838 31.1445C38.8327 31.0927 38.8401 31.0405 38.8598 30.9923C38.8794 30.9441 38.9106 30.9015 38.9505 30.8682C38.9863 30.8444 39.016 30.8126 39.0373 30.7753C39.0586 30.738 39.071 30.6963 39.0733 30.6534C39.0426 30.4795 38.6436 30.5613 38.5004 30.7148Z" fill="#54372B"/>
<path d="M60.7411 30.8685C60.4035 30.7866 60.3114 30.9606 60.4956 31.3391C60.5214 31.4055 60.5626 31.4648 60.6158 31.5121C60.6689 31.5595 60.7326 31.5935 60.8015 31.6115C60.8704 31.6295 60.9426 31.6309 61.0121 31.6155C61.0816 31.6002 61.1466 31.5685 61.2015 31.5232C61.3959 31.38 61.1503 30.9606 60.7411 30.8685Z" fill="#54372B"/>
<path d="M45.8863 29.5695C45.7418 29.5735 45.6005 29.5264 45.4873 29.4365C45.451 29.4074 45.4059 29.3916 45.3594 29.3916C45.313 29.3916 45.2679 29.4074 45.2316 29.4365C45.1088 29.5286 45.2316 29.9173 45.4873 30.5414C45.5487 30.6641 45.7431 30.7255 45.9784 30.6948C46.2137 30.6641 46.3569 30.5823 46.2648 30.1117C46.1728 29.6411 46.1114 29.5695 45.8863 29.5695Z" fill="#54372B"/>
<path d="M92.691 49.7028C92.5477 49.7098 92.4066 49.6663 92.292 49.58C92.2557 49.551 92.2106 49.5352 92.1641 49.5352C92.1176 49.5352 92.0725 49.551 92.0362 49.58C91.9135 49.6721 92.0362 50.0609 92.292 50.6849C92.3534 50.8077 92.5478 50.8691 92.7831 50.8384C93.0184 50.8077 93.1616 50.7259 93.0695 50.2553C92.9774 49.7847 92.9161 49.7028 92.691 49.7028Z" fill="#54372B"/>
<path d="M48.8125 27.666C48.3214 27.666 48.3112 27.7376 48.7204 28.3617C49.1296 28.9858 49.7434 29.0164 49.6207 28.6175C49.5184 28.0445 49.191 27.666 48.8125 27.666Z" fill="#54372B"/>
<path d="M46.3468 34.4391C46.3567 34.4891 46.3859 34.5332 46.428 34.5619C46.4701 34.5906 46.5218 34.6016 46.5719 34.5926L47.1243 34.4596L47.5233 34.3778L47.2573 34.122C46.756 33.6412 46.1627 33.8458 46.3468 34.4391Z" fill="#54372B"/>
<path d="M24.2081 41.8972C24.2181 41.9471 24.2472 41.9912 24.2893 42.0199C24.3314 42.0486 24.3831 42.0596 24.4332 42.0506L24.9959 41.9176L25.3847 41.8358L25.1187 41.58C24.6174 41.0992 24.024 41.3038 24.2081 41.8972Z" fill="#54372B"/>
<path d="M84.1906 40.4235C84.2005 40.4735 84.2296 40.5176 84.2717 40.5463C84.3138 40.575 84.3655 40.586 84.4156 40.577C84.4975 40.577 84.7532 40.4951 84.9681 40.444L85.3671 40.3621L85.1011 40.1064C84.5998 39.6255 84.0064 39.8301 84.1906 40.4235Z" fill="#54372B"/>
<path d="M60.885 36.3619C61.2124 36.6791 61.3249 36.6586 61.6114 36.2494C61.8979 35.8402 61.7751 35.5537 61.3045 35.5537C60.8339 35.5537 60.5884 36.0755 60.885 36.3619Z" fill="#54372B"/>
<path d="M41.5593 32.1367C41.0478 32.1367 41.0273 32.8631 41.5593 33.6508C42.0913 34.4386 42.388 34.5511 42.4698 33.9373C42.5517 33.3235 41.9481 32.1367 41.5593 32.1367Z" fill="#54372B"/>
<path d="M83.9031 43.5439C83.3915 43.5439 83.3711 44.2703 83.9031 45.0581C84.4351 45.8458 84.7317 45.9583 84.8136 45.3445C84.8954 44.7307 84.2918 43.5439 83.9031 43.5439Z" fill="#54372B"/>
<path d="M41.3547 36.8022C41.1975 36.8266 41.0366 36.8015 40.8943 36.7305C40.7306 36.5464 40.5158 36.8328 40.5771 37.1705C40.5947 37.3109 40.6475 37.4446 40.7306 37.5592C40.8738 37.6717 41.0068 37.6308 41.2012 37.4262C41.3134 37.3191 41.4505 37.2418 41.6002 37.2011C41.6259 37.1974 41.6505 37.1886 41.6727 37.1752C41.6949 37.1618 41.7142 37.1441 41.7295 37.1231C41.7447 37.1021 41.7556 37.0783 41.7615 37.0531C41.7674 37.0278 41.7682 37.0016 41.7639 36.9761C41.7127 36.8226 41.6513 36.7919 41.3547 36.8022Z" fill="#54372B"/>
<path d="M25.3446 45.5901C25.1874 45.6159 25.0261 45.5908 24.8842 45.5185C24.7103 45.3343 24.5057 45.631 24.5568 45.9584C24.5744 46.0989 24.6272 46.2326 24.7103 46.3472C24.8637 46.4597 24.9865 46.4188 25.1911 46.2244C25.2962 46.1113 25.4309 46.0298 25.5799 45.9891C25.6069 45.9887 25.6334 45.982 25.6574 45.9696C25.6814 45.9572 25.7021 45.9393 25.718 45.9175C25.7339 45.8956 25.7445 45.8704 25.7489 45.8438C25.7533 45.8171 25.7515 45.7898 25.7436 45.764C25.6617 45.6106 25.5901 45.5799 25.3446 45.5901Z" fill="#54372B"/>
<path d="M21.048 40.3414C20.8898 40.3649 20.7282 40.3361 20.5877 40.2596C20.424 40.0857 20.2091 40.3721 20.2705 40.6995C20.2812 40.8399 20.3308 40.9745 20.4137 41.0883C20.5672 41.2008 20.7002 41.1701 20.8946 40.9655C20.9909 40.8519 21.114 40.764 21.2526 40.7097C21.2796 40.706 21.3056 40.6969 21.329 40.683C21.3525 40.669 21.3729 40.6506 21.3891 40.6287C21.4053 40.6067 21.417 40.5818 21.4234 40.5553C21.4298 40.5288 21.4309 40.5013 21.4265 40.4744C21.4163 40.3517 21.3447 40.321 21.048 40.3414Z" fill="#54372B"/>
<path d="M74.6134 35.3287C74.6134 35.6766 74.6952 35.8198 74.818 35.8709C75.0226 35.963 75.0635 35.963 75.217 35.8709C75.3704 35.7789 75.084 34.8479 74.8589 34.7456C74.6338 34.6433 74.5622 34.766 74.6134 35.3287Z" fill="#54372B"/>
<path d="M67.5343 34.5719C67.5485 34.5123 67.5409 34.4495 67.5127 34.3951C67.4845 34.3406 67.4377 34.2981 67.3809 34.2752C67.1353 34.1525 66.5522 34.6435 66.6545 34.8891C66.7568 35.1346 67.4218 34.7765 67.5343 34.5719Z" fill="#54372B"/>
<path d="M78.6561 41.8361C78.7788 41.7031 78.7788 41.6213 78.6561 41.4678C78.5718 41.3733 78.4614 41.3057 78.3389 41.2734C78.1445 41.2734 77.8274 41.7645 77.8786 41.9793C77.9297 42.1942 78.4003 42.1021 78.6561 41.8361Z" fill="#54372B"/>
<path d="M53.2218 35.5947C53.0991 35.5947 52.9456 35.8505 52.874 36.1779C52.8024 36.5052 52.874 36.7099 53.007 36.6178C53.3446 36.3825 53.5185 35.5947 53.2218 35.5947Z" fill="#54372B"/>
<path d="M86.2768 47.9434C86.154 47.9434 85.9903 48.2094 85.9187 48.5265C85.8471 48.8436 85.9187 49.0585 86.0619 48.9664C86.3996 48.7823 86.5632 47.9434 86.2768 47.9434Z" fill="#54372B"/>
<path d="M23.3898 48.4746C23.267 48.4746 23.1136 48.7304 23.042 49.0475C22.9704 49.3647 23.042 49.5795 23.175 49.4874C23.5126 49.3033 23.6865 48.4746 23.3898 48.4746Z" fill="#54372B"/>
<path d="M37.8655 38.6642C37.9985 38.6642 38.1008 38.48 38.0905 38.255C38.0803 38.0299 37.9678 37.8662 37.8348 37.8662C37.7018 37.8662 37.6097 38.0401 37.6199 38.255C37.6301 38.4698 37.7325 38.6642 37.8655 38.6642Z" fill="#54372B"/>
<path d="M20.0354 47.8712C20.1684 47.8712 20.2604 47.6973 20.2604 47.4722C20.2604 47.2472 20.1377 47.0732 20.0047 47.0732C19.8717 47.0732 19.7796 47.2574 19.7898 47.4722C19.8001 47.6871 19.9024 47.8712 20.0354 47.8712Z" fill="#54372B"/>
<path d="M56.9458 29.0878C57.2732 29.4766 57.6006 29.4664 57.6926 29.0878C57.7847 28.7093 57.2323 28.1978 56.9049 28.3615C56.5775 28.5252 56.6491 28.7195 56.9458 29.0878Z" fill="#54372B"/>
<path d="M87.5552 42.3476C87.8826 42.7466 88.2099 42.7261 88.302 42.3476C88.3941 41.9691 87.8417 41.4575 87.5143 41.6212C87.1869 41.7849 87.2585 41.9793 87.5552 42.3476Z" fill="#54372B"/>
<path d="M75.5251 38.8179C75.7706 38.6849 75.6786 38.5212 75.2796 38.4087C75.2456 38.3922 75.2086 38.3831 75.1709 38.3819C75.1332 38.3808 75.0956 38.3878 75.0608 38.4023C75.026 38.4168 74.9946 38.4386 74.9688 38.4661C74.9431 38.4937 74.9234 38.5264 74.9113 38.5622C74.8397 38.6952 74.8499 38.8282 74.9113 38.8588C75.0081 38.9066 75.1159 38.928 75.2237 38.9208C75.3315 38.9136 75.4354 38.8781 75.5251 38.8179Z" fill="#54372B"/>
<path d="M92.2525 46.1022C92.498 45.9692 92.3957 45.8055 92.007 45.693C91.8126 45.6419 91.7205 45.693 91.6284 45.8465C91.5363 45.9999 91.567 46.1125 91.6284 46.1431C91.7271 46.1908 91.8365 46.2121 91.9458 46.205C92.0552 46.1978 92.1609 46.1624 92.2525 46.1022Z" fill="#54372B"/>
<path d="M71.0441 37.1498C71.0441 36.894 70.8906 36.8838 70.5735 37.1498C70.2563 37.4158 70.42 37.9171 70.9008 37.9171C70.9929 37.9171 71.085 37.9171 71.0952 37.9989C71.0952 38.1217 71.4124 38.1217 71.4737 37.9989C71.5351 37.8761 71.4226 37.7943 71.2998 37.6511C71.1759 37.5067 71.0883 37.3348 71.0441 37.1498Z" fill="#54372B"/>
<path d="M77.673 37.2215C77.8163 37.4875 78.0413 37.467 78.1641 37.1601C78.2869 36.8532 77.9186 36.4951 77.6321 36.4951C77.3457 36.4951 77.5196 36.935 77.673 37.2215Z" fill="#54372B"/>
<path d="M31.2472 36.8841C31.3933 36.7348 31.4836 36.5397 31.503 36.3317C31.503 36.0964 31.503 36.0862 31.2574 36.3317C31.1144 36.4843 31.0216 36.6771 30.9915 36.8841C30.9812 37.0785 31.0324 37.0888 31.2472 36.8841Z" fill="#54372B"/>
<path d="M42.7363 26.3877C43.6878 31.237 44.5471 36.0965 45.386 40.9662C46.3477 46.5725 47.1559 52.2914 54.2354 52.2914C61.3149 52.2914 62.1436 46.6134 63.0746 41.0378C63.8828 36.1578 64.7217 31.2983 65.6424 26.4388C65.1514 31.3597 64.6194 36.2601 63.9749 41.1708C63.2076 47.3091 61.9288 53.5906 54.2354 53.5804C46.5421 53.5702 45.2837 47.3296 44.4858 41.1503C43.8412 36.1783 43.2376 31.2779 42.7363 26.3877Z" fill="#54372B"/>
</svg>
