<svg width="103" height="55" viewBox="0 0 103 55" fill="none" xmlns="http://www.w3.org/2000/svg">
<path d="M101.516 40.0605H1.543C1.34466 40.0667 1.15214 40.1291 0.987942 40.2405C0.823744 40.3519 0.694618 40.5077 0.615658 40.6898C0.536698 40.8718 0.511168 41.0726 0.542019 41.2686C0.572869 41.4646 0.65885 41.6478 0.78991 41.7968C3.65583 44.8196 10.5069 50.7189 20.5271 50.8757C20.7943 50.8823 21.0487 50.9908 21.2384 51.1791L23.9892 53.9299C24.1841 54.1232 24.447 54.2321 24.7214 54.2333H78.3372C78.6116 54.2321 78.8746 54.1232 79.0694 53.9299L81.8203 51.1791C82.0099 50.9908 82.2644 50.8823 82.5315 50.8757C92.5518 50.7189 99.4028 44.8196 102.269 41.7968C102.4 41.6478 102.486 41.4646 102.517 41.2686C102.547 41.0726 102.522 40.8718 102.443 40.6898C102.364 40.5077 102.235 40.3519 102.071 40.2405C101.906 40.1291 101.714 40.0667 101.516 40.0605Z" fill="#F8E4BE"/>
<path d="M101.402 13.4719C100.784 8.94294 97.2177 5.86782 92.9398 4.80094C89.8133 4.11348 86.5875 4.00359 83.4216 4.4767C83.4216 3.0019 83.4948 1.81997 83.4948 1.04596C83.4948 0.768552 83.3846 0.502508 83.1884 0.306353C82.9923 0.110198 82.7262 0 82.4488 0H20.5909C20.3135 0 20.0474 0.110198 19.8513 0.306353C19.6551 0.502508 19.5449 0.768552 19.5449 1.04596C19.5449 7.21711 20.4026 39.1293 36.3848 40.0602H66.7071C69.6406 39.8735 72.3914 38.5711 74.3949 36.4203C78.2972 36.208 82.1382 35.3564 85.7645 33.8995C90.1096 32.1194 93.9729 29.3384 97.0399 25.7829C99.8431 22.4462 102.019 17.9486 101.402 13.4719ZM94.5296 21.0551C92.3025 24.6405 89.1475 27.5571 85.3984 29.496C82.8514 30.8596 80.1213 31.8495 77.2922 32.4352C80.0431 27.6133 81.5911 21.2434 82.4384 15.407C84.1511 14.8531 85.6855 13.8531 86.8837 12.5097C87.6836 11.5707 88.7669 10.9172 89.9705 10.6474C91.1741 10.3776 92.4328 10.5063 93.5569 11.0139C97.6152 13.0431 96.3496 17.9068 94.5296 21.0551Z" fill="#F8E4BE"/>
<path d="M77.6582 33.418C83.2933 32.1537 88.4413 29.2836 92.4794 25.155C94.7434 22.8737 96.2982 19.9855 96.9561 16.8396C97.4687 13.7017 96.0566 10.773 92.9083 9.87353C91.2324 9.42962 89.4493 9.65861 87.94 10.5116C86.8168 11.2391 85.766 12.0727 84.8021 13.0009C86.5802 11.2437 88.0759 9.53883 90.7536 9.30872C92.3036 9.15879 93.8524 9.60545 95.0845 10.5577C96.3166 11.51 97.1393 12.8962 97.385 14.4339C97.8766 17.7287 96.1612 21.128 94.2471 23.6802C92.1532 26.3598 89.538 28.5871 86.5593 30.2279C83.7975 31.7945 80.7864 32.8737 77.6582 33.418Z" fill="#54372B"/>
<path d="M22.5781 50.5403L31.6257 50.4671L51.4988 50.4043L71.372 50.4671L80.4196 50.5403L71.372 50.6135H51.4988H31.6257L22.5781 50.5403Z" fill="#54372B"/>
<path d="M2.64062 42.1203L51.5287 41.9844L100.417 42.1203L51.5287 42.2459L2.64062 42.1203Z" fill="#54372B"/>
<path d="M32.3351 35.3328C28.35 31.2536 26.7183 25.2393 25.4318 19.8422C24.2864 14.9082 23.5863 9.88137 23.3398 4.82221L26.4777 4.67578C26.8438 15.0726 27.7538 25.7832 32.3351 35.3328Z" fill="#54372B"/>
</svg>
