<svg width="92" height="55" viewBox="0 0 92 55" fill="none" xmlns="http://www.w3.org/2000/svg">
<path opacity="0.5" fill-rule="evenodd" clip-rule="evenodd" d="M64.4617 4.78041C63.8547 12.3021 60.5612 19.2978 55.3058 24.2287C50.0504 29.1594 43.2635 31.6214 36.4382 31.0728C29.6129 30.5243 23.3082 27.0101 18.9112 21.3037C14.5141 15.597 12.3849 8.16548 12.9918 0.643748C12.9918 0.643748 27.1969 8.0296 38.7267 2.71208C50.2566 -2.60546 64.4617 4.78041 64.4617 4.78041ZM71.5149 24.7558C69.8906 27.658 68.0011 30.2598 65.9318 32.4165C64.6625 33.4546 63.5875 34.4373 62.5905 35.3488C57.3641 40.1268 54.2795 42.9467 36.5611 41.5226C18.0742 40.0368 15.925 37.3461 10.692 30.7946C9.95275 29.8691 9.15191 28.8665 8.23476 27.7793C0.82566 18.9968 1.07362 10.7738 1.90608 0.457562L9.25891 1.04851C8.07314 15.7431 13.8247 23.3105 13.8247 23.3105C13.8247 23.3105 18.7366 33.1348 37.1187 34.6122C55.5008 36.0896 60.8115 27.0868 60.8115 27.0868C60.8115 27.0868 67.9691 17.077 68.9456 4.97558L76.6528 5.59501C77.628 5.37778 78.6356 5.27645 79.6522 5.29775C82.2148 5.35143 84.6984 6.1813 86.7345 7.66417C88.7708 9.14708 90.2507 11.2039 90.9548 13.5293C91.6589 15.8547 91.5497 18.3247 90.6432 20.5726C89.7368 22.8205 88.0814 24.7266 85.9231 26.0076C83.7646 27.2885 81.2182 27.8765 78.6619 27.6839C76.1055 27.4913 73.6754 26.5283 71.7325 24.9382C71.6591 24.8782 71.5866 24.8174 71.5149 24.7558ZM76.3941 11.8963C77.341 11.3362 78.446 11.0485 79.574 11.0721C80.8165 11.0982 82.0207 11.5005 83.008 12.2195C83.9953 12.9386 84.713 13.9358 85.0544 15.0634C85.3957 16.1909 85.3428 17.3885 84.9033 18.4785C84.4636 19.5684 83.661 20.4926 82.6146 21.1136C81.568 21.7349 80.3334 22.0199 79.0939 21.9265C77.8543 21.8331 76.676 21.3663 75.734 20.5952C75.1279 20.0993 74.6404 19.4945 74.2973 18.8217C75.1576 16.596 75.8659 14.2717 76.3941 11.8963ZM2.54468 44.0087L69.6588 49.4027C70.9224 49.5043 71.8531 50.7476 71.7376 52.1798C71.622 53.6119 70.5039 54.6906 69.2403 54.589L2.12617 49.195C0.862557 49.0935 -0.0681209 47.8501 0.0474473 46.418C0.163015 44.9858 1.28107 43.9071 2.54468 44.0087Z" fill="#F9D9AA"/>
</svg>
