<svg width="36" height="36" viewBox="0 0 36 36" fill="none" xmlns="http://www.w3.org/2000/svg">
<g clip-path="url(#clip0_12_569)">
<path d="M14.375 30.4375C14.375 30.7713 14.276 31.0975 14.0906 31.375C13.9052 31.6525 13.6416 31.8688 13.3333 31.9965C13.0249 32.1243 12.6856 32.1577 12.3583 32.0926C12.0309 32.0275 11.7303 31.8667 11.4943 31.6307C11.2583 31.3947 11.0975 31.0941 11.0324 30.7667C10.9673 30.4394 11.0007 30.1001 11.1285 29.7917C11.2562 29.4834 11.4725 29.2198 11.75 29.0344C12.0275 28.849 12.3537 28.75 12.6875 28.75C13.1351 28.75 13.5643 28.9278 13.8807 29.2443C14.1972 29.5607 14.375 29.9899 14.375 30.4375ZM27.3125 28.75C26.9787 28.75 26.6525 28.849 26.375 29.0344C26.0975 29.2198 25.8812 29.4834 25.7535 29.7917C25.6257 30.1001 25.5923 30.4394 25.6574 30.7667C25.7225 31.0941 25.8833 31.3947 26.1193 31.6307C26.3553 31.8667 26.6559 32.0275 26.9833 32.0926C27.3106 32.1577 27.6499 32.1243 27.9583 31.9965C28.2666 31.8688 28.5302 31.6525 28.7156 31.375C28.901 31.0975 29 30.7713 29 30.4375C29 29.9899 28.8222 29.5607 28.5057 29.2443C28.1893 28.9278 27.7601 28.75 27.3125 28.75ZM33.1625 10.3422L29.45 23.3359C29.2754 23.9215 28.9175 24.4357 28.429 24.8027C27.9404 25.1698 27.347 25.3704 26.7359 25.375H13.2641C12.653 25.3704 12.0596 25.1698 11.571 24.8027C11.0825 24.4357 10.7246 23.9215 10.55 23.3359L6.85156 10.3562V10.3281L5.47344 5.53281C5.43745 5.41524 5.36482 5.31225 5.26616 5.23889C5.16749 5.16552 5.04795 5.12561 4.925 5.125H2.5625C2.41332 5.125 2.27024 5.06574 2.16475 4.96025C2.05926 4.85476 2 4.71168 2 4.5625C2 4.41332 2.05926 4.27024 2.16475 4.16475C2.27024 4.05926 2.41332 4 2.5625 4H4.925C5.29257 4.00038 5.65013 4.11977 5.94418 4.34031C6.23823 4.56085 6.45297 4.87068 6.55625 5.22344L7.80781 9.625H32.6141C32.7016 9.62387 32.7881 9.64371 32.8664 9.68286C32.9447 9.722 33.0125 9.77931 33.0641 9.85C33.1175 9.91882 33.1541 9.99909 33.1712 10.0845C33.1883 10.1699 33.1853 10.2581 33.1625 10.3422ZM31.8687 10.75H8.13125L11.6328 23.0266C11.7361 23.3793 11.9508 23.6891 12.2449 23.9097C12.5389 24.1302 12.8965 24.2496 13.2641 24.25H26.7359C27.1035 24.2496 27.4611 24.1302 27.7551 23.9097C28.0492 23.6891 28.2639 23.3793 28.3672 23.0266L31.8687 10.75Z" fill="#F5FFFA" stroke="#F5FFFA" stroke-width="0.5"/>
<path d="M23.7746 13.8981C23.3879 13.5353 22.9199 13.2705 22.4098 13.1258C21.8997 12.9812 21.3623 12.9609 20.8427 13.0667C19.6173 13.2827 18.4914 13.8801 17.6255 14.7737C16.7286 15.6398 16.1292 16.7679 15.9136 17.9959C15.8086 18.5147 15.8293 19.0511 15.9739 19.5603C16.1185 20.0695 16.3829 20.5367 16.7449 20.9229C17.0473 21.2129 17.4045 21.4398 17.7956 21.5901C18.1866 21.7405 18.6038 21.8113 19.0226 21.7985C20.4915 21.7394 21.8798 21.1114 22.8941 20.0473C24.8318 18.109 25.2254 15.3493 23.7746 13.8981ZM16.4006 18.0697C16.6013 16.9471 17.1504 15.9161 17.9698 15.123C18.7616 14.3018 19.7932 13.7524 20.9165 13.5537C21.1087 13.5247 21.3027 13.5099 21.497 13.5095C21.851 13.4972 22.2039 13.5557 22.5351 13.6816C22.8662 13.8074 23.1689 13.9981 23.4254 14.2424C23.446 14.2614 23.4642 14.2829 23.4795 14.3064C23.1731 14.572 22.8192 14.7773 22.4366 14.9115C21.8839 15.1102 21.3853 15.4354 20.9805 15.8609C20.5549 16.2657 20.2298 16.7643 20.031 17.317C19.8589 17.8097 19.5703 18.2536 19.1898 18.6108C18.8312 18.9896 18.3878 19.2779 17.896 19.452C17.4731 19.6026 17.0813 19.8294 16.74 20.121C16.3893 19.4984 16.2691 18.7721 16.4006 18.0697ZM22.5448 19.698C20.7985 21.4443 18.3535 21.8379 17.0942 20.5785C17.0733 20.5584 17.0536 20.537 17.0352 20.5146C17.344 20.2497 17.6993 20.0446 18.083 19.9095C18.6341 19.7076 19.1321 19.3829 19.5391 18.9601C19.9637 18.5544 20.2886 18.0561 20.4885 17.504C20.6607 17.0113 20.9493 16.5674 21.3297 16.2102C21.687 15.8297 22.1308 15.5411 22.6235 15.369C23.0445 15.2151 23.4344 14.9869 23.7746 14.695C24.5814 16.0291 24.1042 18.1386 22.5448 19.698Z" fill="#F5FFFA" stroke="#F5FFFA" stroke-width="0.5"/>
</g>
<defs>
<clipPath id="clip0_12_569">
<rect width="36" height="36" fill="white"/>
</clipPath>
</defs>
</svg>
