<svg width="108" height="107" viewBox="0 0 108 107" fill="none" xmlns="http://www.w3.org/2000/svg">
<path d="M103.006 40.053C103.42 36.4533 103.285 32.8116 102.605 29.2525C101.693 24.7637 99.1592 20.7683 95.4873 18.0301C91.8155 15.2919 87.2633 14.0029 82.701 14.4095C79.099 14.765 75.5719 15.665 72.2399 17.0788C65.4819 19.9023 58.9861 25.534 53.6476 32.6624C48.3091 39.7907 44.7141 47.6134 43.8963 54.9114C43.7408 56.2581 43.684 57.6144 43.7266 58.9693C43.8208 62.2166 44.6463 65.4008 46.1415 68.2849C47.6367 71.1689 49.7632 73.6786 52.3626 75.6271C54.962 77.5756 57.9675 78.9126 61.1552 79.5387C64.3429 80.1649 67.6308 80.0639 70.7741 79.2434C72.1046 78.8862 73.4089 78.4377 74.6777 77.9011C81.4512 75.0775 87.9315 69.4304 93.2701 62.3021C98.6086 55.1737 102.188 47.3511 103.006 40.053Z" fill="#F8E4BE"/>
<path d="M99.1035 24.4697C103.254 33.0484 102.081 43.1238 98.2086 51.5636C93.9835 61.0236 87.0249 69.0033 78.2276 74.4761C74.3951 76.824 70.021 78.1421 65.5293 78.3026C74.324 77.778 82.0849 71.8377 87.7783 65.5425C94.5209 58.0902 100.199 48.5703 101.063 38.3407C101.547 33.6265 100.875 28.8653 99.1035 24.4697Z" fill="#54372B"/>
<path d="M93.5947 24.3926L93.0238 24.8863C92.6535 25.2258 92.1135 25.7349 91.4809 26.4292C89.8017 28.3807 88.2553 30.4426 86.8521 32.601C85.9726 33.9279 84.8926 35.3165 83.9205 36.8286C82.9202 38.4326 82.1074 40.1462 81.4981 41.9357C80.8764 43.8624 80.4879 45.8568 80.3409 47.876C80.1559 50.0189 79.7579 52.138 79.1529 54.202C78.4908 56.2866 77.4091 58.2136 75.9744 59.8646C74.5599 61.4176 73.011 62.8427 71.3456 64.123C69.8027 65.3882 68.2598 66.4837 66.7168 67.5329C65.3147 68.5274 63.8624 69.4492 62.3658 70.2948C60.1101 71.581 57.6769 72.5273 55.1449 73.1029C54.2345 73.3035 53.5093 73.3961 53.0156 73.4732L52.2441 73.5503L53.0002 73.4269C53.4939 73.3343 54.2191 73.1955 55.114 72.9486C57.573 72.2416 59.9243 71.2035 62.1035 69.8627C63.5653 68.9692 64.9766 67.9957 66.3311 66.9466C67.874 65.8666 69.417 64.7094 70.9599 63.4596C72.5405 62.1917 74.0115 60.793 75.3573 59.2782C76.6935 57.701 77.696 55.8691 78.3043 53.8934C78.906 51.8796 79.3141 49.813 79.5232 47.7217C79.6886 45.6215 80.1083 43.5491 80.773 41.55C81.4244 39.7102 82.3112 37.9624 83.4114 36.3503C84.4606 34.8074 85.5406 33.4959 86.4972 32.1844C88.0045 30.0849 89.6707 28.1042 91.4809 26.2595C92.1444 25.6115 92.6998 25.1332 93.0238 24.8092L93.5947 24.3926Z" fill="#54372B"/>
<path d="M93.2095 22.2012C89.5065 25.1173 87.4852 28.6506 84.3531 32.4925C81.1899 36.0744 79.057 40.4468 78.1814 45.1446C77.9225 48.0274 77.4376 50.8855 76.731 53.6924C75.0492 58.7378 69.7415 62.0551 65.5756 65.2644C61.4097 68.4737 57.213 70.9732 51.9824 71.5904C55.4628 69.0663 58.7153 66.2422 61.7029 63.1505C64.6368 59.6468 66.746 55.5286 67.8746 51.1003C69.0781 47.1349 68.8775 42.7684 70.513 38.8802C72.5651 34.0354 77.2248 30.7336 81.4987 27.6786C85.2789 25.0093 88.5807 22.7412 93.2095 22.2012Z" fill="#54372B"/>
<path d="M26.8628 36.7665C23.2332 37.0475 19.6685 37.8853 16.2937 39.2506C12.0621 41.0056 8.62745 44.2612 6.64848 48.3928C4.66952 52.5244 4.28559 57.2412 5.57034 61.6385C6.60689 65.1012 8.16793 68.3846 10.1991 71.3744C14.2879 77.469 20.9997 82.7612 29.0846 86.6185C37.1696 90.4759 45.486 92.4971 52.7994 91.8954C54.1488 91.7786 55.489 91.5724 56.8111 91.2782C59.984 90.565 62.9548 89.1445 65.5021 87.1228C68.0494 85.1012 70.1073 82.5304 71.5224 79.6024C72.9375 76.6743 73.6732 73.4645 73.6746 70.2125C73.676 66.9604 72.9431 63.75 71.5306 60.8207C70.9441 59.5834 70.2739 58.3874 69.5248 57.2411C65.4515 51.1466 58.7243 45.8697 50.6239 42.0124C42.5235 38.1551 34.1763 36.1493 26.8628 36.7665Z" fill="#F8E4BE"/>
<path d="M12.3125 43.5864C19.8266 37.9393 29.7939 37.0752 38.7429 39.1582C48.9681 41.4334 58.2638 46.7537 65.4047 54.4178C68.4317 57.7339 70.5567 61.7715 71.5764 66.1441C69.3546 57.6116 62.0411 51.1468 54.7585 46.7803C46.1335 41.596 35.6725 37.8776 25.4428 39.0656C20.7678 39.5022 16.2654 41.0523 12.3125 43.5864Z" fill="#54372B"/>
<path d="M13.3008 49.0176L13.9025 49.4805C14.3037 49.7736 14.9054 50.2056 15.6923 50.6839C17.9203 51.9642 20.2293 53.0981 22.6047 54.0784C24.1476 54.6956 25.6905 55.4825 27.326 56.1459C29.0917 56.8198 30.9299 57.2858 32.8034 57.5346C34.812 57.7814 36.8432 57.7814 38.8517 57.5346C40.9913 57.326 43.1461 57.326 45.2857 57.5346C47.4595 57.7793 49.56 58.4672 51.4575 59.5558C53.2426 60.6195 54.9309 61.838 56.5028 63.1971C58.0458 64.4932 59.4344 65.851 60.7613 67.1162C62.0233 68.2979 63.2232 69.5442 64.3563 70.85C66.0544 72.8145 67.453 75.0189 68.5068 77.3921C68.8771 78.2561 69.124 78.935 69.2783 79.4287L69.4943 80.1539L69.232 79.4287C69.0469 78.9659 68.7691 78.287 68.3525 77.4692C67.1852 75.1859 65.7108 73.0731 63.9706 71.1895C62.906 70.0169 61.6562 68.8442 60.2984 67.6099C58.9407 66.3755 57.5212 65.0795 55.9937 63.8143C54.4389 62.4794 52.7715 61.2818 51.01 60.2347C49.2043 59.2324 47.2158 58.6028 45.1623 58.3832C43.0842 58.1826 40.9916 58.1826 38.9134 58.3832C36.8638 58.6331 34.7914 58.6331 32.7417 58.3832C30.8033 58.1261 28.9088 57.6071 27.11 56.8402C25.3974 56.0996 23.9007 55.2973 22.4812 54.6338C20.1264 53.5679 17.8613 52.3141 15.7077 50.8845C14.9363 50.3599 14.3654 49.8971 13.9797 49.5885L13.3008 49.0176Z" fill="#54372B"/>
<path d="M11.2324 49.8203C14.812 52.9062 18.6539 54.1868 23.0358 56.5166C27.1568 58.9243 31.8567 60.162 36.629 60.0962C39.5092 59.7957 42.4082 59.7183 45.3003 59.8648C50.5771 60.5591 54.8511 65.1262 58.8164 68.5823C62.7817 72.0385 66.0373 75.6953 67.642 80.6944C64.4901 77.7754 61.0935 75.1324 57.4895 72.7945C53.4831 70.5905 49.0328 69.3145 44.4672 69.0607C40.3321 68.6441 36.089 69.6933 31.9694 68.8292C26.816 67.7492 22.7118 63.8301 18.8545 60.2197C15.5218 57.0567 12.6519 54.2485 11.2324 49.8203Z" fill="#54372B"/>
</svg>
