<svg width="107" height="107" viewBox="0 0 107 107" fill="none" xmlns="http://www.w3.org/2000/svg">
<path d="M82.916 11.9468H82.0036C81.777 11.9428 81.5571 11.8689 81.3741 11.7351C81.1911 11.6013 81.0539 11.4142 80.9814 11.1994L79.2776 6.07705C78.9425 5.29989 78.3871 4.63794 77.6799 4.173C76.9727 3.70806 76.1448 3.46051 75.2985 3.46094H30.7697C29.9234 3.46672 29.0967 3.71663 28.3889 4.18068C27.6812 4.64474 27.1223 5.30322 26.7796 6.07705L25.0868 11.1994C25.0143 11.4142 24.8772 11.6013 24.6941 11.7351C24.5111 11.8689 24.2912 11.9428 24.0645 11.9468H23.1522C22.47 11.9468 21.8158 12.2178 21.3334 12.7002C20.8511 13.1825 20.5801 13.8368 20.5801 14.5189C20.5801 15.2011 20.8511 15.8554 21.3334 16.3377C21.8158 16.8201 22.47 17.0911 23.1522 17.0911H23.8557C24.1291 17.0897 24.3933 17.1903 24.5965 17.3733C24.7998 17.5562 24.9276 17.8083 24.9549 18.0804L32.4515 98.6191C32.4515 98.6191 32.4515 104.038 53.0286 104.038C73.6057 104.038 73.6387 98.6191 73.6387 98.6191L81.1353 18.0804C81.1626 17.8083 81.2904 17.5562 81.4936 17.3733C81.6969 17.1903 81.961 17.0897 82.2345 17.0911H82.938C83.6201 17.0911 84.2744 16.8201 84.7567 16.3377C85.2391 15.8554 85.5101 15.2011 85.5101 14.5189C85.5101 13.8368 85.2391 13.1825 84.7567 12.7002C84.2744 12.2178 83.6201 11.9468 82.938 11.9468H82.916Z" fill="#F8E4BE"/>
<path d="M30.1211 38.2617L33.2758 72.2492C46.4365 73.5029 59.6865 73.5029 72.8472 72.2492L75.9909 38.2617C60.7664 40.2623 45.3456 40.2623 30.1211 38.2617Z" fill="#54372B"/>
<path d="M70.7142 18.1352L66.834 18.3001C65.46 18.3551 63.9981 18.3881 62.4921 18.432C59.4803 18.509 56.2706 18.553 53.05 18.553C49.8293 18.553 46.6196 18.5529 43.6078 18.432C42.1129 18.432 40.6509 18.3551 39.2769 18.3001L35.3858 18.1352C32.9895 18.0143 30.9889 17.9154 29.5929 17.8165L27.3945 17.6846L29.5929 17.8604C30.9779 17.9814 32.9675 18.1462 35.3748 18.2782L39.255 18.498L43.6518 18.6738C46.6746 18.7618 49.8953 18.8168 53.1159 18.8278C56.3366 18.8387 59.5683 18.7618 62.5911 18.6738C65.6139 18.5859 68.4169 18.432 70.8131 18.2782C73.2094 18.1243 75.21 17.9814 76.595 17.8604L78.7934 17.6846L76.595 17.8165C75.122 17.9154 73.1215 18.0143 70.7142 18.1352Z" fill="#54372B"/>
<path d="M35.3965 11.3977C40.211 11.6065 46.6303 11.7824 53.0497 11.8044C59.469 11.8264 65.8994 11.6065 70.7139 11.3977C73.1212 11.2988 75.1107 11.1778 76.5177 11.0899L78.7161 10.958C78.7161 10.958 75.5174 11.1119 70.7029 11.2768C65.8884 11.4417 59.469 11.5845 53.0497 11.5626C46.6303 11.5406 40.211 11.4527 35.4624 11.2768C30.7138 11.1009 27.4492 10.958 27.4492 10.958L29.6476 11.0899C30.9887 11.1778 32.9672 11.2988 35.3965 11.3977Z" fill="#54372B"/>
<path d="M59.5805 48.8249C58.9612 47.7539 58.1787 46.786 57.2612 45.956C56.1011 44.9208 54.6006 44.3486 53.0458 44.3486C51.4909 44.3486 49.9904 44.9208 48.8303 45.956C47.9255 46.788 47.1511 47.7515 46.533 48.8139C45.2935 51.3092 44.6484 54.0575 44.6484 56.8436C44.6484 59.6297 45.2935 62.3781 46.533 64.8733C46.7704 65.2553 47.031 65.6224 47.3134 65.9725C47.9986 66.8415 48.8719 67.544 49.8676 68.0269C50.8633 68.5098 51.9556 68.7607 53.0622 68.7607C54.1689 68.7607 55.2612 68.5098 56.2569 68.0269C57.2526 67.544 58.1259 66.8415 58.8111 65.9725C59.0958 65.6216 59.36 65.2546 59.6025 64.8733C60.842 62.3781 61.4871 59.6297 61.4871 56.8436C61.4871 54.0575 60.842 51.3092 59.6025 48.8139L59.5805 48.8249Z" fill="#F8E4BE"/>
<path d="M55.3477 45.373C56.6893 46.1469 57.8488 47.2001 58.7478 48.4612C59.6467 49.7224 60.2641 51.1621 60.5579 52.6828C61.4162 56.2214 61.1551 59.9392 59.8105 63.3231C59.2369 64.7025 58.3214 65.913 57.1504 66.8405C59.4257 64.9389 60.3271 61.7732 60.6019 58.9372C61.0892 55.3883 60.3979 51.7776 58.6343 48.6597C57.8123 47.321 56.6863 46.195 55.3477 45.373Z" fill="#54372B"/>
<path d="M53.8524 46.4727L53.7975 46.7365C53.7975 46.905 53.7645 47.1468 53.6985 47.4619C53.6396 48.333 53.6396 49.207 53.6985 50.078C53.6985 50.6167 53.6986 51.1772 53.7645 51.8148C53.8153 52.4583 53.9444 53.0932 54.1492 53.7054C54.369 54.3587 54.668 54.9825 55.0396 55.5631C55.4229 56.1833 55.7468 56.8384 56.0069 57.5197C56.2505 58.2254 56.3477 58.9735 56.2927 59.7181C56.2317 60.4205 56.1066 61.1159 55.9189 61.7956C55.7541 62.4551 55.5452 63.0816 55.3473 63.6752C55.1495 64.2688 54.9626 64.8294 54.7428 65.324C54.3891 66.122 53.9187 66.863 53.3468 67.5224C53.138 67.7643 52.9621 67.9401 52.8411 68.061L52.6543 68.2369L52.8302 68.0501C53.0021 67.8727 53.1636 67.6855 53.3138 67.4895C53.8344 66.7926 54.2629 66.0315 54.5889 65.2251C54.7868 64.7305 54.9626 64.1259 55.1385 63.5763C55.3144 63.0267 55.5012 62.3562 55.6661 61.6967C55.8411 61.0301 55.9588 60.3497 56.0179 59.6631C56.0622 58.9612 55.9611 58.2577 55.7211 57.5966C55.4738 56.9281 55.1647 56.2841 54.7977 55.673C54.4247 55.0723 54.1223 54.4305 53.8964 53.7604C53.6973 53.1294 53.5791 52.4756 53.5447 51.8148C53.5447 51.1772 53.5447 50.5947 53.5447 50.0561C53.5237 49.178 53.5715 48.2996 53.6876 47.429C53.7202 47.1844 53.7679 46.9421 53.8305 46.7035L53.8524 46.4727Z" fill="#54372B"/>
<path d="M53.2814 45.9561C53.0061 47.4712 52.8991 49.0121 52.9626 50.5507C52.8403 52.1688 53.1554 53.79 53.8749 55.2444C54.3947 56.0789 54.8469 56.9537 55.227 57.8604C55.7876 59.5862 55.0181 61.5648 54.5455 63.2795C54.1796 64.9707 53.3454 66.5248 52.1382 67.7643C52.5652 66.3711 52.8741 64.9444 53.0615 63.4994C53.1449 61.9478 52.8821 60.3971 52.2921 58.9596C51.6311 57.7074 51.0403 56.4193 50.5224 55.1014C50.2635 53.3115 50.5071 51.4848 51.2258 49.8252C51.5531 48.375 52.2629 47.039 53.2814 45.9561Z" fill="#54372B"/>
<path d="M53.0509 71.7871C43.8835 71.7871 36.4199 64.972 36.4199 56.5851C36.4199 48.1982 43.8835 41.3721 53.0509 41.3721C62.2182 41.3721 69.6928 48.1982 69.6928 56.5851C69.6928 64.972 62.2292 71.7871 53.0509 71.7871ZM53.0509 42.1086C44.2572 42.1086 37.1893 48.5939 37.1893 56.5521C37.1893 64.5104 44.3012 70.9847 53.0509 70.9847C61.8005 70.9847 68.9234 64.5104 68.9234 56.5521C68.9234 48.5939 61.8005 42.1415 53.0509 42.1415V42.1086Z" fill="#F8E4BE"/>
</svg>
