<svg width="23" height="22" viewBox="0 0 23 22" fill="none" xmlns="http://www.w3.org/2000/svg">
<path d="M11.8629 17.8967L6.54994 21.0973C6.31523 21.2467 6.06985 21.3107 5.8138 21.2894C5.55775 21.268 5.33371 21.1827 5.14167 21.0333C4.94964 20.884 4.80027 20.6975 4.69359 20.4739C4.5869 20.2494 4.56556 19.9985 4.62958 19.7211L6.03784 13.6719L1.33295 9.60717C1.11958 9.41514 0.986434 9.19621 0.933517 8.95041C0.879747 8.70545 0.895537 8.46562 0.980886 8.23091C1.06624 7.9962 1.19426 7.80416 1.36496 7.6548C1.53566 7.50544 1.77037 7.40942 2.06909 7.36675L8.27826 6.82264L10.6787 1.12557C10.7854 0.869519 10.951 0.677483 11.1755 0.549458C11.3991 0.421434 11.6282 0.357422 11.8629 0.357422C12.0977 0.357422 12.3272 0.421434 12.5517 0.549458C12.7753 0.677483 12.9405 0.869519 13.0472 1.12557L15.4476 6.82264L21.6568 7.36675C21.9555 7.40942 22.1902 7.50544 22.3609 7.6548C22.5316 7.80416 22.6596 7.9962 22.745 8.23091C22.8303 8.46562 22.8466 8.70545 22.7936 8.95041C22.7399 9.19621 22.6063 9.41514 22.3929 9.60717L17.688 13.6719L19.0963 19.7211C19.1603 19.9985 19.139 20.2494 19.0323 20.4739C18.9256 20.6975 18.7762 20.884 18.5842 21.0333C18.3922 21.1827 18.1681 21.268 17.9121 21.2894C17.656 21.3107 17.4107 21.2467 17.1759 21.0973L11.8629 17.8967Z" fill="url(#paint0_linear_241_3940)"/>
<defs>
<linearGradient id="paint0_linear_241_3940" x1="16.9708" y1="-4.50927" x2="-4.24848" y2="3.25899" gradientUnits="userSpaceOnUse">
<stop stop-color="#E0A872"/>
<stop offset="0.444501" stop-color="#F8E4BE"/>
<stop offset="0.549712" stop-color="#FFF3E0"/>
<stop offset="1" stop-color="#E0A872"/>
</linearGradient>
</defs>
</svg>
