<svg width="60" height="36" viewBox="0 0 60 36" fill="none" xmlns="http://www.w3.org/2000/svg">
<path opacity="0.8" d="M33.7759 27.718C28.7011 27.718 23.8568 25.2624 20.1362 20.8052C17.2078 17.1955 15.2212 12.9153 14.3545 8.34865C14.302 8.12681 14.3011 7.89588 14.352 7.67366C14.4029 7.45144 14.5041 7.24388 14.6479 7.067C14.7917 6.89011 14.9742 6.74863 15.1814 6.65346C15.3886 6.55829 15.6148 6.51199 15.8427 6.51812H51.7166C51.9445 6.51199 52.1708 6.55829 52.3779 6.65346C52.5851 6.74863 52.7676 6.89011 52.9114 7.067C53.0552 7.24388 53.1565 7.45144 53.2073 7.67366C53.2582 7.89588 53.2574 8.12681 53.2048 8.34865C52.3349 12.9143 50.3486 17.1937 47.4231 20.8052C43.7025 25.2624 38.8583 27.718 33.7759 27.718Z" fill="white"/>
<path d="M33.7759 27.718C28.7011 27.718 23.8568 25.2624 20.1362 20.8052C17.2078 17.1955 15.2212 12.9153 14.3545 8.34865C14.302 8.12681 14.3011 7.89588 14.352 7.67366C14.4029 7.45144 14.5041 7.24388 14.6479 7.067C14.7917 6.89011 14.9742 6.74863 15.1814 6.65346C15.3886 6.55829 15.6148 6.51199 15.8427 6.51812H51.7166C51.9445 6.51199 52.1708 6.55829 52.3779 6.65346C52.5851 6.74863 52.7676 6.89011 52.9114 7.067C53.0552 7.24388 53.1565 7.45144 53.2073 7.67366C53.2582 7.89588 53.2574 8.12681 53.2048 8.34865C52.3349 12.9143 50.3486 17.1937 47.4231 20.8052C43.7025 25.2624 38.8583 27.718 33.7759 27.718Z" fill="white"/>
<path d="M58.4427 1.24267C58.0891 0.85352 57.6584 0.542106 57.178 0.328186C56.6977 0.114265 56.1781 0.00250762 55.6523 0H11.9056C11.3797 0.00250762 10.8602 0.114265 10.3798 0.328186C9.89946 0.542106 9.46877 0.85352 9.11513 1.24267C8.30343 2.12572 7.86367 3.28784 7.88736 4.48703C5.76669 4.86157 3.83714 5.94806 2.41725 7.56714C0.997362 9.18622 0.172005 11.2411 0.0774855 13.3925C-0.0170344 15.5439 0.624932 17.6632 1.89736 19.4006C3.16978 21.138 4.9966 22.3895 7.07625 22.9486C8.05981 23.238 9.07957 23.3858 10.1048 23.3876C11.3851 23.38 12.6552 23.1587 13.8626 22.7328C14.5051 23.6883 15.2033 24.6052 15.9536 25.4786C18.4367 28.4196 21.5495 30.7643 25.0616 32.3393H18.7143C18.2426 32.3393 17.7902 32.5267 17.4567 32.8602C17.1232 33.1938 16.9358 33.6461 16.9358 34.1178C16.9358 34.5895 17.1232 35.0418 17.4567 35.3753C17.7902 35.7089 18.2426 35.8962 18.7143 35.8962H49.0073C49.479 35.8962 49.9313 35.7089 50.2648 35.3753C50.5984 35.0418 50.7857 34.5895 50.7857 34.1178C50.7857 33.6461 50.5984 33.1938 50.2648 32.8602C49.9313 32.5267 49.479 32.3393 49.0073 32.3393H42.526C46.0381 30.7643 49.1509 28.4196 51.634 25.4786C56.322 20.0316 59.1868 12.6798 59.6928 4.77723C59.7389 4.13377 59.6516 3.48774 59.4365 2.87955C59.2214 2.27136 58.8831 1.71411 58.4427 1.24267ZM8.0064 19.5182C6.72896 19.1768 5.60297 18.4167 4.80861 17.3597C4.01425 16.3026 3.59746 15.0096 3.6249 13.6877C3.65233 12.3657 4.12241 11.0911 4.95994 10.0679C5.79747 9.0447 6.95402 8.33202 8.24452 8.04391C8.82755 12.0727 10.0854 15.9744 11.9651 19.5852C10.6637 19.9208 9.29571 19.8976 8.0064 19.5182ZM33.7752 29.7275C22.6581 29.7275 13.2375 18.6401 12.3297 4.49446H55.2281C54.6998 18.1639 44.8998 29.7275 33.7752 29.7275Z" fill="#4E3D33"/>
<path d="M18.082 17.9482C18.6983 18.948 19.3846 19.9029 20.1358 20.8057C23.8563 25.2704 28.7006 27.7185 33.7754 27.7185C38.8503 27.7185 43.702 25.2629 47.4226 20.8057C48.1738 19.9029 48.8601 18.948 49.4764 17.9482H18.082Z" fill="#4E3D33"/>
<path d="M18.0821 17.9479H49.4764C50.8697 15.6724 51.9367 13.2127 52.6463 10.6406H14.9121C15.6217 13.2127 16.6887 15.6724 18.0821 17.9479Z" fill="#FFE6CF"/>
</svg>
