<svg width="61" height="36" viewBox="0 0 61 36" fill="none" xmlns="http://www.w3.org/2000/svg">
<path d="M34.28 27.718C29.1977 27.718 24.3535 25.2624 20.6329 20.8052C17.7074 17.1937 15.7211 12.9143 14.8511 8.34865C14.806 8.12755 14.8105 7.89918 14.8643 7.68002C14.918 7.46085 15.0198 7.25636 15.1621 7.08126C15.3045 6.90616 15.4839 6.76483 15.6875 6.66745C15.8911 6.57007 16.1137 6.51906 16.3394 6.51812H52.2133C52.4411 6.51199 52.6674 6.55829 52.8746 6.65346C53.0817 6.74863 53.2642 6.89011 53.4081 7.067C53.5519 7.24388 53.6531 7.45144 53.704 7.67366C53.7549 7.89588 53.754 8.12681 53.7015 8.34865C52.834 12.9137 50.8503 17.1931 47.9272 20.8052C44.1619 25.2624 39.3177 27.718 34.28 27.718Z" fill="white"/>
<path d="M58.9017 1.24267C58.5483 0.853162 58.1177 0.541511 57.6373 0.327561C57.1569 0.113611 56.6372 0.00205365 56.1113 0H12.3646C11.8387 0.00250762 11.3192 0.114265 10.8388 0.328186C10.3584 0.542106 9.92776 0.85352 9.57411 1.24267C8.76572 2.12776 8.32648 3.2885 8.34635 4.48703C6.22568 4.86157 4.2961 5.94806 2.87621 7.56714C1.45632 9.18622 0.63099 11.2411 0.53647 13.3925C0.44195 15.5439 1.08389 17.6632 2.35632 19.4006C3.62875 21.138 5.45559 22.3895 7.53524 22.9486C8.51909 23.2366 9.53866 23.3844 10.5638 23.3876C11.8316 23.3758 13.0887 23.1546 14.2844 22.7328C14.9293 23.6866 15.6273 24.6033 16.3754 25.4786C18.8596 28.4216 21.9753 30.7666 25.4908 32.3393H19.1063C18.6346 32.3393 18.1823 32.5267 17.8487 32.8602C17.5152 33.1938 17.3278 33.6461 17.3278 34.1178C17.3278 34.5895 17.5152 35.0418 17.8487 35.3753C18.1823 35.7089 18.6346 35.8962 19.1063 35.8962H49.3919C49.8635 35.8962 50.3159 35.7089 50.6494 35.3753C50.9829 35.0418 51.1703 34.5895 51.1703 34.1178C51.1703 33.6461 50.9829 33.1938 50.6494 32.8602C50.3159 32.5267 49.8635 32.3393 49.3919 32.3393H42.918C46.4301 30.7643 49.5429 28.4196 52.026 25.4786C56.7214 20.0316 59.5788 12.6798 60.0848 4.77723C60.1398 4.13849 60.0631 3.49526 59.8596 2.88732C59.6561 2.27937 59.3301 1.71962 58.9017 1.24267ZM8.46538 19.5182C7.18795 19.1768 6.06196 18.4167 5.26759 17.3597C4.47323 16.3026 4.05643 15.0096 4.08386 13.6877C4.11129 12.3657 4.58139 11.0911 5.41892 10.0679C6.25646 9.0447 7.41301 8.33202 8.70351 8.04391C9.28999 12.0719 10.5476 15.973 12.4241 19.5852C11.1227 19.9208 9.75469 19.8976 8.46538 19.5182ZM34.2788 29.7275C23.1171 29.7275 13.7337 18.6401 12.8259 4.49446H55.7243C55.1588 18.1639 45.3587 29.7275 34.2788 29.7275Z" fill="#4E3D33"/>
<path d="M16.502 13.9297C17.5051 16.4181 18.8855 18.7371 20.5946 20.8053C24.3152 25.27 29.1594 27.7182 34.2417 27.7182C39.3241 27.7182 44.1608 25.2626 47.8888 20.8053C49.593 18.735 50.9706 16.4163 51.9741 13.9297H16.502Z" fill="#4E3D33"/>
</svg>
